SplineFontDB: 3.0
FontName: AlternateRealityTheDungeon
FullName: Alternate Reality The Dungeon
FamilyName: Alternate Reality The Dungeon
Weight: Regular
Copyright: Copyright (c) 2017, Brad Fisher
UComments: "2017-3-11: Created with FontForge (http://fontforge.org)"
Version: 001.000
ItalicAngle: 0
UnderlinePosition: -100
UnderlineWidth: 50
Ascent: 800
Descent: 200
InvalidEm: 0
LayerCount: 3
Layer: 0 0 "Back" 1
Layer: 1 0 "Fore" 0
Layer: 2 0 "Back 2" 1
XUID: [1021 438 -1441232220 27964]
FSType: 0
OS2Version: 0
OS2_WeightWidthSlopeOnly: 0
OS2_UseTypoMetrics: 1
CreationTime: 1489213314
ModificationTime: 1490394220
PfmFamily: 17
TTFWeight: 400
TTFWidth: 5
LineGap: 90
VLineGap: 0
OS2TypoAscent: 0
OS2TypoAOffset: 1
OS2TypoDescent: 0
OS2TypoDOffset: 1
OS2TypoLinegap: 90
OS2WinAscent: 0
OS2WinAOffset: 1
OS2WinDescent: 0
OS2WinDOffset: 1
HheadAscent: 0
HheadAOffset: 1
HheadDescent: 0
HheadDOffset: 1
OS2Vendor: 'PfEd'
MarkAttachClasses: 1
DEI: 91125
LangName: 1033
Encoding: ISO8859-1
UnicodeInterp: none
NameList: AGL For New Fonts
DisplaySize: -128
AntiAlias: 1
FitToEm: 0
WinInfo: 42 14 6
BeginPrivate: 0
EndPrivate
Grid
1425 95 m 25
 -227 95 l 25
 1425 95 l 25
1483 571 m 25
 -169 571 l 25
 1483 571 l 25
1483 571 m 25
 -169 571 l 25
 1483 571 l 25
-261 476 m 1
 1443 476 l 1025
1441 -103 m 25
 -211 -103 l 25
 1441 -103 l 25
1483 385 m 25
 -169 385 l 25
 1483 385 l 25
1496 669 m 25
 -156 669 l 25
 1496 669 l 25
1496 669 m 25
 -156 669 l 25
 1496 669 l 25
-154 764 m 1
 1193 761 l 1049
EndSplineSet
TeXData: 1 0 0 721420 360710 240473 0 1048576 240473 783286 444596 497025 792723 393216 433062 380633 303038 157286 324010 404750 52429 2506097 1059062 262144
BeginChars: 256 95

StartChar: A
Encoding: 65 65 0
Width: 800
Flags: HW
LayerCount: 3
Back
SplineSet
14.09375 0 m 5
 206.143554688 0 l 5
 206.143554688 90.849609375 l 5
 299.293945312 90.849609375 l 5
 299.293945312 285.200195312 l 5
 490.193359375 285.200195312 l 5
 490.193359375 90.849609375 l 5
 593.693359375 90.849609375 l 5
 593.693359375 0 l 5
 779.994140625 0 l 5
 779.994140625 93.150390625 l 5
 689.143554688 93.150390625 l 5
 689.143554688 478.400390625 l 5
 595.994140625 478.400390625 l 5
 595.994140625 662.400390625 l 5
 492.494140625 662.400390625 l 5
 492.494140625 761.299804688 l 5
 115.293945312 761.299804688 l 5
 115.293945312 660.099609375 l 5
 16.3935546875 660.099609375 l 5
 16.3935546875 569.25 l 5
 115.293945312 569.25 l 5
 115.293945312 660.099609375 l 5
 296.994140625 660.099609375 l 5
 296.994140625 571.549804688 l 5
 203.84375 571.549804688 l 5
 203.84375 285.200195312 l 5
 117.59375 285.200195312 l 5
 117.59375 95.4501953125 l 5
 14.09375 95.4501953125 l 5
 14.09375 0 l 5
402.793945312 473.799804688 m 5
 491.34375 473.799804688 l 5
 491.34375 373.75 l 5
 402.793945312 373.75 l 5
 402.793945312 473.799804688 l 5
EndSplineSet
Fore
SplineSet
387 379 m 1
 445 369 450 366 504 353 c 1
 489 450 471 506 433 550 c 1
 413 479 411 460 387 379 c 1
777 -5 m 0
 601 3 532 143 515 269 c 1
 492 271 376 297 355 297 c 0
 354 297 l 1
 286 152 243 6 35 -2 c 0
 29 -2 16 -1 15 13 c 0
 14 26 26 31 32 33 c 0
 140 91 267 474 311 610 c 0
 312 617 313 623 313 629 c 0
 313 651 299 664 262 664 c 0
 173 664 130 642 31 559 c 0
 16 546 1 562 9 579 c 0
 57 673 174 771 313 771 c 0
 550 771 647 537 675 316 c 0
 688 218 714 67 780 31 c 0
 785 29 794 24 794 8 c 0
 794 0 783 -5 777 -5 c 0
EndSplineSet
Validated: 1
EndChar

StartChar: B
Encoding: 66 66 1
Width: 800
VWidth: 0
Flags: HW
LayerCount: 3
Back
SplineSet
304.049804688 87.400390625 m 5
 305.200195312 0 l 5
 692.75 0 l 5
 692.75 90.849609375 l 5
 785.900390625 90.849609375 l 5
 785.900390625 376.049804688 l 5
 688.150390625 376.049804688 l 5
 688.150390625 478.400390625 l 5
 785.900390625 478.400390625 l 5
 785.900390625 662.400390625 l 5
 688.150390625 662.400390625 l 5
 688.150390625 759 l 5
 409.849609375 759 l 5
 409.849609375 664.700195312 l 5
 307.5 664.700195312 l 5
 307.5 761.299804688 l 5
 22.2998046875 761.299804688 l 5
 22.2998046875 660.099609375 l 5
 123.5 660.099609375 l 5
 123.5 95.4501953125 l 5
 20 95.4501953125 l 5
 20 0 l 5
 212.049804688 0 l 5
 212.049804688 95.4501953125 l 5
 304.049804688 94.2998046875 l 5
 305.200195312 569.25 l 5
 407.549804688 569.25 l 5
 407.549804688 655.5 l 5
 599.599609375 654.349609375 l 5
 599.599609375 480.700195312 l 5
 407.549804688 480.700195312 l 5
 407.549804688 376.049804688 l 5
 599.599609375 376.049804688 l 5
 599.599609375 88.5498046875 l 5
 304.049804688 87.400390625 l 5
EndSplineSet
Fore
SplineSet
127 622 m 0
 120 707 16 707 16 744 c 0
 16 766 41 766 63 766 c 8
 138 766 198 766 198 766 c 2
 244 766 287 758 300 651 c 1
 356 706 457 765 556 765 c 0
 634 765 749 696 749 578 c 0
 749 510 705 452 654 437 c 1
 751 383 791 310 791 240 c 0
 791 118 686 -5 516 -5 c 0
 514 -5 511 -5 508 -5 c 0
 475 -5 364 0 271 99 c 1
 220 6 134 1 74 1 c 0
 52 1 9 4 9 25 c 0
 9 56 114 64 127 170 c 0
 134 228 139 296 139 373 c 0
 139 449 134 532 127 622 c 0
310 526 m 0
 313 480 315 435 315 391 c 0
 315 299 307 213 290 139 c 1
 354 96 407 86 456 86 c 0
 562 86 623 165 623 243 c 0
 623 318 569 377 434 386 c 0
 397 388 379 403 379 417 c 0
 379 431 395 444 427 445 c 0
 564 452 604 524 604 576 c 0
 604 624 570 649 499 649 c 0
 456 649 371 595 327 564 c 0
 319 558 310 553 310 532 c 0
 310 530 310 528 310 526 c 0
EndSplineSet
Validated: 1
EndChar

StartChar: C
Encoding: 67 67 2
Width: 750
VWidth: 0
Flags: HW
LayerCount: 3
Back
SplineSet
701.77734375 97.01953125 m 5
 597.828125 97.01953125 l 5
 597.828125 1.1552734375 l 5
 119.658203125 1.1552734375 l 5
 119.658203125 92.400390625 l 5
 20.328125 92.400390625 l 5
 20.328125 572.879882812 l 5
 115.038085938 570.5703125 l 5
 115.038085938 666.434570312 l 5
 215.522460938 666.434570312 l 5
 215.522460938 762.299804688 l 5
 603.602539062 762.299804688 l 5
 603.602539062 668.745117188 l 5
 698.3125 668.745117188 l 5
 698.3125 570.5703125 l 5
 602.448242188 572.879882812 l 5
 602.448242188 479.325195312 l 5
 406.09765625 479.325195312 l 5
 406.09765625 575.190429688 l 5
 510.047851562 575.190429688 l 5
 510.047851562 666.434570312 l 5
 310.232421875 666.434570312 l 5
 310.232421875 570.5703125 l 5
 215.522460938 570.5703125 l 5
 215.522460938 183.64453125 l 5
 314.852539062 183.64453125 l 5
 314.852539062 97.01953125 l 5
 506.583007812 97.01953125 l 5
 506.583007812 188.264648438 l 5
 701.77734375 188.264648438 l 5
 701.77734375 97.01953125 l 5
EndSplineSet
Fore
SplineSet
721 169 m 0
 616 142 575 46 502 16 c 0
 467 2 412 -8 352 -8 c 0
 268 -8 174 11 119 64 c 0
 63 117 12 200 12 335 c 0
 12 594 139 767 395 767 c 0
 396 767 396 767 397 767 c 0
 574 766 643 674 643 608 c 0
 643 539 515 475 442 475 c 0
 413 475 391 485 391 511 c 0
 391 567 539 549 539 602 c 16
 539 644 470 657 415 657 c 0
 255 657 203 512 203 364 c 0
 203 234 244 110 382 110 c 0
 517 110 510 200 716 200 c 0
 722 200 736 199 737 188 c 0
 738 176 727 171 721 169 c 0
EndSplineSet
Validated: 1
EndChar

StartChar: D
Encoding: 68 68 3
Width: 800
VWidth: 0
Flags: HW
LayerCount: 3
Back
SplineSet
210.849609375 0 m 5
 210.849609375 90.849609375 l 5
 299.400390625 90.849609375 l 5
 299.400390625 0 l 5
 689.25 0 l 5
 689.25 90.849609375 l 5
 782.400390625 90.849609375 l 5
 782.400390625 662.400390625 l 5
 691.549804688 662.400390625 l 5
 691.549804688 759 l 5
 404.049804688 759 l 5
 404.049804688 664.700195312 l 5
 304 664.700195312 l 5
 304 763.599609375 l 5
 18.7998046875 763.599609375 l 5
 18.7998046875 662.400390625 l 5
 120 662.400390625 l 5
 120 95.4501953125 l 5
 16.5 95.4501953125 l 5
 16.5 0 l 5
 210.849609375 0 l 5
406.349609375 569.25 m 5
 406.349609375 657.799804688 l 5
 593.799804688 657.799804688 l 5
 596.099609375 95.4501953125 l 5
 306.299804688 95.4501953125 l 5
 306.299804688 569.25 l 5
 406.349609375 569.25 l 5
EndSplineSet
Fore
SplineSet
126 159 m 0
 135 199 140 273 140 360 c 0
 140 447 135 549 126 641 c 0
 118 721 12 713 12 750 c 0
 12 771 38 772 60 772 c 8
 135 772 196 772 196 772 c 2
 242 772 283 772 296 665 c 1
 342 712 432 768 524 768 c 0
 709 768 792 528 792 331 c 0
 792 133 708 -6 512 -6 c 0
 430 -6 342 26 272 104 c 1
 219 18 173 -1 74 -1 c 0
 52 -1 8 2 8 23 c 0
 8 54 101 47 126 159 c 0
296 161 m 1
 358 130 415 112 466 112 c 0
 559 112 622 177 622 344 c 0
 622 545 570 630 486 630 c 0
 437 630 377 604 310 561 c 1
 313 477 318 417 318 363 c 0
 318 296 312 240 296 161 c 1
EndSplineSet
Validated: 1
EndChar

StartChar: E
Encoding: 69 69 4
Width: 800
VWidth: 0
Flags: HW
LayerCount: 3
Back
SplineSet
9.408203125 657.799804688 m 5
 110.608398438 657.799804688 l 5
 110.608398438 0 l 5
 586.708007812 0 l 5
 586.708007812 90.849609375 l 5
 677.557617188 90.849609375 l 5
 677.557617188 184 l 5
 773.0078125 184 l 5
 773.0078125 287.5 l 5
 586.708007812 287.5 l 5
 586.708007812 186.299804688 l 5
 485.5078125 186.299804688 l 5
 485.5078125 95.4501953125 l 5
 299.208007812 95.4501953125 l 5
 299.208007812 373.75 l 5
 487.807617188 373.75 l 5
 487.807617188 480.700195312 l 5
 294.608398438 480.700195312 l 5
 294.608398438 657.799804688 l 5
 483.208007812 657.799804688 l 5
 483.208007812 569.25 l 5
 677.557617188 569.25 l 5
 677.557617188 759 l 5
 9.408203125 759 l 5
 9.408203125 657.799804688 l 5
EndSplineSet
Fore
SplineSet
777 258 m 0
 594 203 680 2 440 2 c 0
 439 2 439 2 438 2 c 1
 209 2 l 1
 137 2 113 16 112 98 c 0
 112 583 l 0
 110 640 82 729 21 744 c 0
 12 746 7 750 7 757 c 24
 7 764 11 767 21 767 c 0
 438 767 l 2
 605 767 687 745 687 655 c 0
 687 605 647 573 598 573 c 0
 512 573 536 663 472 664 c 10
 294 667 l 25
 298 488 l 1
 343 488 389 486 434 486 c 0
 484 486 510 485 510 426 c 0
 510 383 471 379 450 379 c 0
 401 379 352 379 302 379 c 17
 301 122 l 0
 301 108 311 97 324 97 c 9
 431 98 l 2
 560 99 525 289 777 289 c 0
 786 289 792 284 793 275 c 0
 794 268 791 263 777 258 c 0
EndSplineSet
Validated: 1
EndChar

StartChar: F
Encoding: 70 70 5
Width: 700
VWidth: 0
Flags: HW
LayerCount: 3
Back
SplineSet
16.5888671875 762.627929688 m 5
 692.728515625 762.627929688 l 5
 692.728515625 575.112304688 l 5
 555.848632812 575.112304688 l 5
 557.028320312 670.02734375 l 5
 296.249023438 668.870117188 l 5
 296.249023438 483.669921875 l 5
 489.768554688 483.669921875 l 5
 489.768554688 382.967773438 l 5
 300.96875 382.967773438 l 5
 299.7890625 3.3076171875 l 5
 134.588867188 3.3076171875 l 5
 134.588867188 670.02734375 l 5
 16.5888671875 670.02734375 l 5
 16.5888671875 762.627929688 l 5
EndSplineSet
Fore
SplineSet
60 -11 m 0
 59 -4 63 4 68 9 c 0
 93 40 116 72 116 136 c 0
 116 584 l 0
 114 641 90 728 26 745 c 0
 19 747 10 746 10 759 c 0
 10 771 26 768 26 768 c 0
 442 768 l 2
 591 768 690 752 690 656 c 0
 690 606 649 575 600 575 c 0
 516 575 540 664 476 665 c 10
 298 669 l 25
 302 489 l 1
 347 489 393 488 438 488 c 0
 488 488 512 487 512 428 c 0
 512 385 475 381 454 381 c 0
 405 381 356 381 306 381 c 17
 304 239 l 0
 291 17 174 -8 74 -20 c 0
 66 -21 61 -17 60 -11 c 0
EndSplineSet
Validated: 1
EndChar

StartChar: G
Encoding: 71 71 6
Width: 704
VWidth: 0
Flags: HW
LayerCount: 3
Back
SplineSet
114.169921875 97.0498046875 m 5
 200.044921875 97.0498046875 l 5
 200.044921875 2.0146484375 l 5
 592.780273438 2.0146484375 l 5
 592.780273438 94.759765625 l 5
 680.9453125 94.759765625 l 5
 680.9453125 378.719726562 l 5
 295.080078125 378.719726562 l 5
 295.080078125 288.264648438 l 5
 487.440429688 288.264648438 l 5
 487.440429688 101.629882812 l 5
 297.370117188 101.629882812 l 5
 297.370117188 192.084960938 l 5
 204.625 192.084960938 l 5
 204.625 571.080078125 l 5
 297.370117188 571.080078125 l 5
 297.370117188 661.53515625 l 5
 485.150390625 661.53515625 l 5
 485.150390625 478.334960938 l 5
 678.655273438 478.334960938 l 5
 678.655273438 661.53515625 l 5
 590.490234375 661.53515625 l 5
 590.490234375 762.294921875 l 5
 204.625 762.294921875 l 5
 204.625 663.825195312 l 5
 111.879882812 663.825195312 l 5
 111.879882812 571.080078125 l 5
 13.41015625 571.080078125 l 5
 13.41015625 185.21484375 l 5
 114.169921875 185.21484375 l 5
 114.169921875 97.0498046875 l 5
EndSplineSet
Fore
SplineSet
342 327 m 4
 321 328 312 341 312 355 c 4
 312 376 331 381 342 381 c 4
 375 382 400 384 428 384 c 4
 649 384 700 312 700 202 c 4
 700 47 535 -6 362 -6 c 4
 254 -6 150 30 102 75 c 4
 45 129 4 202 4 340 c 4
 4 604 112 772 372 772 c 4
 543 772 668 693 668 553 c 4
 668 492 618 461 570 461 c 4
 523 461 476 491 476 547 c 4
 476 578 492 587 492 624 c 4
 492 650 468 668 390 668 c 4
 224 668 182 548 182 370 c 4
 182 197 304 115 406 115 c 4
 474 115 538 151 538 226 c 4
 538 326 388 326 342 327 c 4
EndSplineSet
Validated: 1
EndChar

StartChar: H
Encoding: 72 72 7
Width: 688
VWidth: 0
Flags: HW
LayerCount: 3
Back
SplineSet
8.6962890625 2.1796875 m 5
 204.918945312 2.1796875 l 5
 204.918945312 183.485351562 l 5
 295.571289062 183.485351562 l 5
 295.571289062 286.759765625 l 5
 483.76171875 286.759765625 l 5
 483.76171875 -0.115234375 l 5
 679.983398438 -0.115234375 l 5
 679.983398438 761.825195312 l 5
 488.3515625 761.825195312 l 5
 488.3515625 481.834960938 l 5
 397.69921875 481.834960938 l 5
 397.69921875 379.70703125 l 5
 198.034179688 379.70703125 l 5
 198.034179688 761.825195312 l 5
 8.6962890625 761.825195312 l 5
 8.6962890625 2.1796875 l 5
EndSplineSet
Fore
SplineSet
6 621 m 4
 6 690 82 766 138 766 c 4
 174 766 202 736 202 655 c 4
 202 654 202 654 202 653 c 4
 202 557 200 472 200 376 c 4
 200 359 205 351 222 358 c 4
 301 391 376 428 468 472 c 28
 485 480 492 498 492 516 c 4
 492 537 492 551 492 562 c 4
 492 593 492 601 492 624 c 4
 492 632 492 644 492 659 c 4
 492 660 l 4
 492 710 561 766 616 766 c 4
 652 766 682 742 682 679 c 4
 682 428 682 149 680 70 c 4
 679 22 630 -4 582 -4 c 4
 534 -4 486 22 486 77 c 4
 486 125 486 162 486 203 c 4
 486 224 486 246 486 271 c 4
 486 291 484 302 464 304 c 4
 463 304 461 304 460 304 c 4
 422 304 283 236 230 192 c 4
 212 176 204 168 204 139 c 4
 204 114 204 112 204 84 c 4
 203 30 153 -1 104 -1 c 4
 55 -1 6 28 6 95 c 4
 6 308 6 404 6 621 c 4
EndSplineSet
Validated: 1
EndChar

StartChar: I
Encoding: 73 73 8
Width: 444
VWidth: 0
Flags: HW
LayerCount: 3
Back
SplineSet
124.897460938 93.98046875 m 1
 213.254882812 93.98046875 l 1
 213.254882812 1.0322265625 l 1
 412.919921875 1.0322265625 l 1
 412.919921875 96.275390625 l 1
 308.497070312 96.275390625 l 1
 308.497070312 664.287109375 l 1
 215.549804688 664.287109375 l 1
 215.549804688 762.97265625 l 1
 23.91796875 762.97265625 l 1
 23.91796875 661.9921875 l 1
 124.897460938 661.9921875 l 1
 124.897460938 93.98046875 l 1
EndSplineSet
Fore
SplineSet
167 105 m 4
 128 209 124 321 124 419 c 4
 124 456 124 492 124 523 c 4
 124 566 123 602 117 631 c 4
 95 736 3 714 3 745 c 4
 3 766 46 770 68 770 c 4
 167 770 256 729 287 639 c 4
 337 497 311 235 329 150 c 4
 350 51 441 47 441 16 c 4
 440 -5 393 -5 371 -5 c 4
 272 -5 190 43 167 105 c 4
EndSplineSet
Validated: 1
EndChar

StartChar: J
Encoding: 74 74 9
Width: 572
VWidth: 0
Flags: HW
LayerCount: 3
Back
SplineSet
199.865234375 761.90234375 m 5
 584.887695312 761.90234375 l 5
 584.887695312 661.362304688 l 5
 486.6328125 661.362304688 l 5
 486.6328125 186.08203125 l 5
 394.08984375 186.08203125 l 5
 394.08984375 95.8251953125 l 5
 199.865234375 95.8251953125 l 5
 199.865234375 0.9970703125 l 5
 11.3525390625 0.9970703125 l 5
 11.3525390625 100.39453125 l 5
 109.607421875 100.39453125 l 5
 109.607421875 186.08203125 l 5
 199.865234375 186.08203125 l 5
 199.865234375 288.907226562 l 5
 292.407226562 288.907226562 l 5
 292.407226562 661.362304688 l 5
 199.865234375 661.362304688 l 5
 199.865234375 761.90234375 l 5
EndSplineSet
Fore
SplineSet
214 765 m 0
 303 765 398 765 486 765 c 0
 527 765 562 760 562 717 c 0
 562 667 534 665 504 665 c 2
 488 665 l 1
 488 579 487 335 460 272 c 0
 381 91 189 -5 84 -5 c 0
 39 -5 10 12 10 49 c 0
 10 154 103 125 140 155 c 0
 295 282 296 435 296 629 c 0
 296 688 262 714 212 729 c 0
 203 731 194 733 194 746 c 0
 194 767 213 765 214 765 c 0
EndSplineSet
Validated: 1
EndChar

StartChar: K
Encoding: 75 75 10
Width: 710
VWidth: 0
Flags: HW
LayerCount: 3
Back
SplineSet
15.181640625 761.294921875 m 5
 206.396484375 761.294921875 l 5
 206.396484375 662.825195312 l 5
 296.8515625 662.825195312 l 5
 296.8515625 484.205078125 l 5
 401.045898438 484.205078125 l 5
 401.045898438 662.825195312 l 5
 489.2109375 662.825195312 l 5
 489.2109375 761.294921875 l 5
 680.426757812 761.294921875 l 5
 680.426757812 660.53515625 l 5
 592.26171875 660.53515625 l 5
 592.26171875 477.334960938 l 5
 489.2109375 477.334960938 l 5
 489.2109375 289.5546875 l 5
 589.971679688 289.5546875 l 5
 589.971679688 98.33984375 l 5
 682.716796875 98.33984375 l 5
 682.716796875 1.0146484375 l 5
 489.2109375 1.0146484375 l 5
 489.2109375 93.759765625 l 5
 396.466796875 93.759765625 l 5
 396.466796875 287.264648438 l 5
 296.8515625 287.264648438 l 5
 296.8515625 93.759765625 l 5
 206.396484375 93.759765625 l 5
 206.396484375 1.0146484375 l 5
 15.181640625 1.0146484375 l 5
 15.181640625 98.33984375 l 5
 113.651367188 98.33984375 l 5
 113.651367188 660.53515625 l 5
 15.181640625 660.53515625 l 5
 15.181640625 761.294921875 l 5
EndSplineSet
Fore
SplineSet
473 374 m 0
 596 310 555 198 616 156 c 0
 660 126 709 125 709 56 c 0
 709 54 709 53 709 51 c 0
 708 14 674 -2 633 -2 c 0
 588 -2 533 16 497 48 c 0
 394 140 421 204 382 267 c 0
 366 293 324 309 302 309 c 1
 295 224 289 160 257 112 c 0
 208 38 151 2 29 2 c 0
 20 2 12 8 12 17 c 24
 12 27 19 33 28 37 c 0
 77 62 105 105 118 167 c 0
 132 228 139 315 139 405 c 0
 139 483 134 565 119 633 c 0
 111 670 69 710 19 731 c 0
 9 735 1 740 1 750 c 0
 1 764 14 766 21 766 c 0
 157 766 252 746 285 641 c 0
 302 586 304 523 306 460 c 1
 328 460 364 479 380 505 c 0
 419 568 397 628 480 707 c 0
 513 739 556 756 592 756 c 0
 628 756 656 739 657 700 c 0
 657 622 610 640 586 604 c 0
 536 526 579 487 473 403 c 0
 466 398 460 395 460 388 c 24
 460 380 465 378 473 374 c 0
EndSplineSet
Validated: 1
EndChar

StartChar: L
Encoding: 76 76 11
Width: 716
VWidth: 0
Flags: HW
LayerCount: 3
Back
SplineSet
13.1328125 764.700195312 m 5
 296.033203125 764.700195312 l 5
 298.333007812 189.700195312 l 5
 489.233398438 189.700195312 l 5
 489.233398438 290.900390625 l 5
 683.583007812 290.900390625 l 5
 683.583007812 96.5498046875 l 5
 491.533203125 96.5498046875 l 5
 491.533203125 3.400390625 l 5
 112.033203125 3.400390625 l 5
 112.033203125 665.799804688 l 5
 13.1328125 665.799804688 l 5
 13.1328125 764.700195312 l 5
EndSplineSet
Fore
SplineSet
28 767 m 0
 312 767 316 658 316 313 c 0
 316 269 315 228 314 190 c 0
 314 181 322 164 337 164 c 0
 369 164 401 163 438 163 c 0
 466 163 513 190 520 221 c 0
 532 272 569 292 609 292 c 0
 658 292 712 255 712 194 c 0
 712 90 513 3 411 3 c 0
 352 3 275 5 214 6 c 0
 163 7 131 3 131 87 c 0
 131 181 131 322 131 401 c 0
 130 621 136 689 27 730 c 0
 21 732 4 734 4 751 c 0
 4 768 28 767 28 767 c 0
EndSplineSet
Validated: 1
EndChar

StartChar: M
Encoding: 77 77 12
Width: 694
VWidth: 0
Flags: HW
LayerCount: 3
Back
SplineSet
7.384765625 761.440429688 m 5
 200.889648438 761.440429688 l 5
 200.889648438 662.969726562 l 5
 293.634765625 662.969726562 l 5
 293.634765625 574.8046875 l 5
 395.540039062 574.8046875 l 5
 395.540039062 662.969726562 l 5
 485.995117188 662.969726562 l 5
 485.995117188 759.150390625 l 5
 674.919921875 759.150390625 l 5
 674.919921875 1.16015625 l 5
 483.705078125 1.16015625 l 5
 483.705078125 477.48046875 l 5
 393.25 477.48046875 l 5
 393.25 377.865234375 l 5
 291.344726562 377.865234375 l 5
 291.344726562 477.48046875 l 5
 200.889648438 477.48046875 l 5
 200.889648438 1.16015625 l 5
 7.384765625 1.16015625 l 5
 7.384765625 761.440429688 l 5
EndSplineSet
Fore
SplineSet
10 661 m 0
 10 746 66 765 116 765 c 0
 189 764 258 640 280 617 c 0
 314 580 334 561 352 561 c 0
 370 561 388 580 422 618 c 0
 439 637 512 762 586 763 c 0
 587 763 587 763 588 763 c 0
 640 763 684 736 684 641 c 0
 684 390 684 204 682 125 c 0
 681 64 604 1 548 1 c 0
 515 1 490 23 490 80 c 0
 490 152 490 394 490 468 c 0
 490 486 486 494 480 494 c 0
 456 494 391 376 352 376 c 0
 317 376 249 494 222 494 c 0
 214 494 210 485 210 463 c 0
 210 438 208 184 208 157 c 0
 207 89 129 0 72 0 c 0
 38 0 10 31 10 115 c 0
 10 328 10 445 10 661 c 0
EndSplineSet
Validated: 1
EndChar

StartChar: N
Encoding: 78 78 13
Width: 688
VWidth: 0
Flags: HW
LayerCount: 3
Back
SplineSet
1.0849609375 763.540039062 m 5
 193.969726562 763.540039062 l 5
 193.969726562 572.96484375 l 5
 287.525390625 572.96484375 l 5
 287.525390625 477.099609375 l 5
 392.629882812 477.099609375 l 5
 392.629882812 378.924804688 l 5
 483.875 378.924804688 l 5
 483.875 763.540039062 l 5
 676.759765625 763.540039062 l 5
 676.759765625 1.240234375 l 5
 483.875 1.240234375 l 5
 483.875 183.73046875 l 5
 392.629882812 183.73046875 l 5
 392.629882812 287.6796875 l 5
 289.834960938 287.6796875 l 5
 289.834960938 381.235351562 l 5
 196.280273438 381.235351562 l 5
 196.280273438 1.240234375 l 5
 1.0849609375 1.240234375 l 5
 1.0849609375 763.540039062 l 5
EndSplineSet
Fore
SplineSet
232 385 m 4
 220 397 213 401 208 401 c 4
 200 401 200 385 200 353 c 4
 200 328 200 184 200 156 c 4
 199 88 120 -2 62 -2 c 4
 27 -2 1 29 1 113 c 4
 1 328 1 444 1 662 c 4
 1 747 56 767 107 767 c 4
 157 767 197 733 197 676 c 4
 197 611 219 574 241 553 c 4
 278 520 423 404 458 380 c 4
 480 365 486 368 486 393 c 4
 486 467 488 538 488 598 c 4
 488 672 556 767 629 767 c 4
 658 767 680 745 680 683 c 4
 680 430 680 152 678 72 c 4
 677 23 629 -2 580 -2 c 4
 481 -2 485 70 484 122 c 4
 484 136 478 170 447 197 c 4
 383 251 297 323 232 385 c 4
EndSplineSet
Validated: 1
EndChar

StartChar: O
Encoding: 79 79 14
Width: 680
VWidth: 0
Flags: HW
LayerCount: 3
Back
SplineSet
667.58203125 95.275390625 m 5
 574.634765625 95.275390625 l 5
 574.634765625 0.0322265625 l 5
 99.5703125 0.0322265625 l 5
 99.5703125 97.5703125 l 5
 0.884765625 97.5703125 l 5
 0.884765625 660.9921875 l 5
 101.865234375 660.9921875 l 5
 101.865234375 761.97265625 l 5
 576.9296875 761.97265625 l 5
 576.9296875 660.9921875 l 5
 667.58203125 660.9921875 l 5
 667.58203125 95.275390625 l 5
478.245117188 92.98046875 m 5
 478.245117188 570.33984375 l 5
 385.297851562 571.487304688 l 5
 385.297851562 663.287109375 l 5
 190.22265625 663.287109375 l 5
 190.22265625 183.6328125 l 5
 283.169921875 183.6328125 l 5
 283.169921875 92.98046875 l 5
 478.245117188 92.98046875 l 5
EndSplineSet
Fore
SplineSet
368 92 m 3
 474 92 505 205 505 337 c 3
 505 502 441 692 322 692 c 3
 214 692 175 605 175 473 c 3
 175 305 243 92 368 92 c 3
670 378 m 3
 670 60 531 -5 355 -5 c 3
 161 -5 0 67 -0 397 c 3
 0 685 173 767 346 767 c 3
 512 767 670 698 670 378 c 3
EndSplineSet
Validated: 1
EndChar

StartChar: P
Encoding: 80 80 15
Width: 690
VWidth: 0
Flags: HW
LayerCount: 3
Back
SplineSet
4.525390625 761.717773438 m 5
 585.384765625 761.717773438 l 5
 585.384765625 660.297851562 l 5
 678.737304688 660.297851562 l 5
 678.737304688 377.934570312 l 5
 585.384765625 377.934570312 l 5
 585.384765625 286.887695312 l 5
 392.91796875 286.887695312 l 5
 392.91796875 375.629882812 l 5
 486.26953125 375.629882812 l 5
 486.26953125 662.602539062 l 5
 290.344726562 662.602539062 l 5
 290.344726562 94.419921875 l 5
 199.297851562 94.419921875 l 5
 199.297851562 1.0673828125 l 5
 4.525390625 1.0673828125 l 5
 4.525390625 94.419921875 l 5
 105.9453125 94.419921875 l 5
 105.9453125 662.602539062 l 5
 4.525390625 662.602539062 l 5
 4.525390625 761.717773438 l 5
EndSplineSet
Fore
SplineSet
25 765 m 0
 85 765 170 763 258 763 c 0
 307 763 357 764 404 764 c 0
 599 764 685 647 685 529 c 0
 685 409 595 287 440 287 c 0
 439 287 436 287 435 287 c 0
 407 287 369 301 369 319 c 0
 369 320 l 0
 372 399 510 319 510 513 c 0
 510 625 477 670 336 670 c 0
 315 670 293 670 268 668 c 1
 290 650 302 543 302 426 c 0
 302 295 286 153 250 108 c 0
 193 35 164 1 18 -2 c 0
 5 -2 2 4 2 12 c 24
 2 21 3 22 17 30 c 0
 67 60 98 98 112 163 c 0
 126 224 134 312 134 402 c 0
 134 481 128 563 113 631 c 0
 106 664 72 707 25 724 c 0
 9 730 2 736 2 749 c 24
 2 759 7 765 25 765 c 0
EndSplineSet
Validated: 1
EndChar

StartChar: Q
Encoding: 81 81 16
Width: 762
VWidth: 0
Flags: HW
LayerCount: 3
Back
SplineSet
771.549804688 1.2001953125 m 5
 109.150390625 1.2001953125 l 5
 109.150390625 96.650390625 l 5
 7.9501953125 96.650390625 l 5
 7.9501953125 663.599609375 l 5
 111.450195312 663.599609375 l 5
 111.450195312 762.5 l 5
 587.549804688 762.5 l 5
 587.549804688 663.599609375 l 5
 678.400390625 663.599609375 l 5
 678.400390625 94.349609375 l 5
 771.549804688 94.349609375 l 5
 771.549804688 1.2001953125 l 5
496.700195312 663.599609375 m 5
 296.599609375 662.450195312 l 5
 297.75 568.150390625 l 5
 205.75 568.150390625 l 5
 205.75 87.4501953125 l 5
 400.099609375 87.4501953125 l 5
 401.25 186.349609375 l 5
 495.549804688 186.349609375 l 5
 496.700195312 663.599609375 l 5
EndSplineSet
Fore
SplineSet
382 162 m 0
 382 191 404 207 428 207 c 0
 451 207 482 188 489 188 c 0
 512 188 517 411 517 422 c 0
 517 537 510 664 371 664 c 0
 191 664 188 445 188 325 c 0
 188 165 232 75 315 75 c 0
 326 75 399 85 399 107 c 0
 399 117 382 132 382 162 c 0
679 376 m 0
 679 199 648 198 648 148 c 0
 648 123 657 97 679 95 c 0
 732 90 757 68 757 46 c 0
 757 23 730 1 680 1 c 0
 635 1 572 25 539 25 c 0
 494 25 495 -3 369 -3 c 0
 368 -3 366 -3 365 -3 c 0
 171 -3 9 68 9 398 c 0
 9 686 183 768 356 768 c 0
 528 768 679 697 679 376 c 0
EndSplineSet
Validated: 1
EndChar

StartChar: R
Encoding: 82 82 17
Width: 786
VWidth: 0
Flags: HW
LayerCount: 3
Back
SplineSet
8.8603515625 763.540039062 m 5
 292.990234375 763.540039062 l 5
 292.990234375 661.900390625 l 5
 400.405273438 661.900390625 l 5
 400.405273438 761.23046875 l 5
 682.224609375 761.23046875 l 5
 682.224609375 661.900390625 l 5
 775.780273438 661.900390625 l 5
 775.780273438 575.275390625 l 5
 684.53515625 575.275390625 l 5
 684.53515625 481.719726562 l 5
 590.98046875 481.719726562 l 5
 590.98046875 376.615234375 l 5
 679.915039062 376.615234375 l 5
 679.915039062 181.419921875 l 5
 775.780273438 181.419921875 l 5
 775.780273438 -1.0703125 l 5
 593.290039062 -1.0703125 l 5
 593.290039062 183.73046875 l 5
 489.33984375 183.73046875 l 5
 489.33984375 376.615234375 l 5
 400.405273438 376.615234375 l 5
 400.405273438 477.099609375 l 5
 491.650390625 477.099609375 l 5
 491.650390625 570.655273438 l 5
 590.98046875 570.655273438 l 5
 590.98046875 661.900390625 l 5
 400.405273438 661.900390625 l 5
 400.405273438 575.275390625 l 5
 295.299804688 575.275390625 l 5
 295.299804688 94.794921875 l 5
 201.745117188 94.794921875 l 5
 201.745117188 1.240234375 l 5
 8.8603515625 1.240234375 l 5
 8.8603515625 90.1748046875 l 5
 112.809570312 90.1748046875 l 5
 112.809570312 664.209960938 l 5
 8.8603515625 664.209960938 l 5
 8.8603515625 763.540039062 l 5
EndSplineSet
Fore
SplineSet
19 -1 m 0
 13 -1 2 5 2 13 c 24
 2 23 12 30 18 32 c 0
 56 53 89 100 107 158 c 0
 121 202 131 317 131 428 c 0
 131 511 126 590 112 636 c 0
 98 682 62 713 22 727 c 0
 16 729 3 734 3 748 c 0
 3 762 23 763 37 763 c 0
 138 763 223 759 281 639 c 1
 310 698 422 764 553 764 c 0
 662 764 743 725 743 636 c 0
 743 532 650 481 592 450 c 0
 568 437 558 429 558 421 c 0
 558 394 679 378 686 221 c 0
 687 194 700 187 720 178 c 1
 763 161 781 128 781 95 c 0
 781 37 735 -3 669 -3 c 0
 634 -3 578 6 560 133 c 0
 540 268 541 277 411 383 c 0
 406 386 372 411 372 429 c 0
 372 462 584 492 584 619 c 0
 584 660 535 671 491 671 c 0
 430 671 340 615 297 567 c 1
 302 500 305 439 305 384 c 0
 305 273 292 184 252 110 c 0
 205 22 122 1 19 -1 c 0
EndSplineSet
Validated: 1
EndChar

StartChar: S
Encoding: 83 83 18
Width: 634
VWidth: 0
Flags: HW
LayerCount: 3
Back
SplineSet
100.014648438 763.065429688 m 5
 387.76953125 763.065429688 l 5
 387.76953125 665.205078125 l 5
 492.620117188 665.205078125 l 5
 492.620117188 763.065429688 l 5
 584.655273438 763.065429688 l 5
 584.655273438 573.169921875 l 5
 391.264648438 573.169921875 l 5
 392.4296875 665.205078125 l 5
 194.379882812 665.205078125 l 5
 194.379882812 478.8046875 l 5
 487.959960938 478.8046875 l 5
 487.959960938 375.120117188 l 5
 582.325195312 375.120117188 l 5
 582.325195312 93.1904296875 l 5
 490.290039062 93.1904296875 l 5
 490.290039062 -1.1748046875 l 5
 192.049804688 -1.1748046875 l 5
 192.049804688 90.8603515625 l 5
 100.014648438 90.8603515625 l 5
 100.014648438 1.1552734375 l 5
 7.98046875 1.1552734375 l 5
 7.98046875 182.89453125 l 5
 189.719726562 182.89453125 l 5
 189.719726562 90.8603515625 l 5
 387.76953125 90.8603515625 l 5
 387.76953125 377.450195312 l 5
 100.014648438 377.450195312 l 5
 100.014648438 481.134765625 l 5
 5.650390625 481.134765625 l 5
 5.650390625 662.875 l 5
 100.014648438 662.875 l 5
 100.014648438 763.065429688 l 5
EndSplineSet
Fore
SplineSet
238 767 m 0
 437 767 370 696 436 696 c 0
 491 696 460 767 515 767 c 16
 553 767 572 730 572 679 c 0
 572 631 517 578 464 578 c 16
 463 578 l 0
 404 578 363 669 303 669 c 8
 223 669 186 647 186 579 c 0
 186 513 274 491 341 491 c 0
 469 491 628 387 628 223 c 0
 628 94 477 -3 352 -3 c 0
 202 -3 224 65 151 65 c 0
 93 65 133 -1 60 -1 c 0
 25 -1 1 43 1 88 c 0
 1 135 27 183 94 183 c 0
 227 183 195 88 302 88 c 0
 380 88 458 128 458 229 c 0
 458 310 394 391 240 392 c 0
 118 393 12 462 12 577 c 0
 12 696 101 767 238 767 c 0
EndSplineSet
Validated: 1
EndChar

StartChar: T
Encoding: 84 84 19
Width: 688
VWidth: 0
Flags: HW
LayerCount: 3
Back
SplineSet
6.76953125 763.120117188 m 5
 675.762695312 763.120117188 l 5
 675.762695312 664.434570312 l 5
 393.477539062 664.434570312 l 5
 393.477539062 573.782226562 l 5
 291.349609375 573.782226562 l 5
 291.349609375 483.129882812 l 5
 198.40234375 483.129882812 l 5
 198.40234375 94.1279296875 l 5
 487.572265625 94.1279296875 l 5
 488.719726562 184.780273438 l 5
 585.110351562 184.780273438 l 5
 585.110351562 288.0546875 l 5
 678.057617188 288.0546875 l 5
 678.057617188 96.4228515625 l 5
 587.405273438 96.4228515625 l 5
 587.405273438 1.1796875 l 5
 107.75 1.1796875 l 5
 107.75 94.1279296875 l 5
 9.0654296875 94.1279296875 l 5
 9.0654296875 478.540039062 l 5
 110.044921875 478.540039062 l 5
 110.044921875 571.487304688 l 5
 200.697265625 571.487304688 l 5
 200.697265625 664.434570312 l 5
 6.76953125 664.434570312 l 5
 6.76953125 763.120117188 l 5
EndSplineSet
Fore
SplineSet
76 764 m 4
 260 764 389 764 604 764 c 4
 652 764 691 727 691 698 c 4
 691 680 676 666 637 666 c 4
 551 666 552 666 446 664 c 5
 267 519 210 480 208 277 c 4
 208 276 208 274 208 273 c 4
 208 158 261 106 363 106 c 4
 528 107 587 204 588 253 c 4
 589 287 612 307 636 307 c 4
 660 307 682 286 682 243 c 4
 682 61 522 -6 357 -6 c 4
 158 -6 1 54 1 296 c 4
 1 435 92 517 249 666 c 5
 176 666 154 666 97 666 c 4
 52 666 8 702 8 731 c 4
 8 749 26 764 76 764 c 4
EndSplineSet
Validated: 1
EndChar

StartChar: U
Encoding: 85 85 20
Width: 744
VWidth: 0
Flags: HW
LayerCount: 3
Back
SplineSet
760.900390625 1.0498046875 m 5
 196.25 1.0498046875 l 5
 196.25 96.5 l 5
 100.799804688 96.5 l 5
 100.799804688 665.75 l 5
 1.900390625 665.75 l 5
 1.900390625 760.049804688 l 5
 284.799804688 760.049804688 l 5
 284.799804688 94.2001953125 l 5
 389.450195312 94.2001953125 l 5
 389.450195312 182.75 l 5
 480.299804688 182.75 l 5
 480.299804688 762.349609375 l 5
 670.049804688 762.349609375 l 5
 670.049804688 91.900390625 l 5
 760.900390625 91.900390625 l 5
 760.900390625 1.0498046875 l 5
EndSplineSet
Fore
SplineSet
31 763 m 0
 173 763 241 753 263 652 c 0
 280 571 283 496 283 436 c 0
 283 388 281 348 281 327 c 0
 281 139 300 94 365 94 c 0
 375 94 395 96 395 104 c 0
 395 117 384 124 384 142 c 0
 384 173 408 196 433 196 c 0
 442 196 452 191 462 191 c 0
 480 191 484 204 484 218 c 0
 484 248 484 273 484 295 c 0
 484 429 482 445 482 603 c 0
 482 689 547 766 601 766 c 0
 638 766 670 732 671 634 c 0
 671 604 671 553 671 497 c 0
 671 384 671 243 671 182 c 0
 671 146 666 130 666 120 c 0
 666 112 669 108 683 102 c 0
 720 88 739 67 739 46 c 0
 739 22 714 0 667 -0 c 0
 635 0 567 21 540 21 c 0
 504 21 514 -2 364 -2 c 0
 363 -2 360 -2 359 -2 c 0
 144 -2 99 69 99 401 c 0
 99 496 96 588 87 629 c 0
 80 662 67 705 26 723 c 0
 19 726 3 730 3 748 c 0
 3 760 17 763 31 763 c 0
EndSplineSet
Validated: 1
EndChar

StartChar: V
Encoding: 86 86 21
Width: 782
VWidth: 0
Flags: HW
LayerCount: 3
Back
SplineSet
8.9501953125 764.950195312 m 5
 204.450195312 764.950195312 l 5
 204.450195312 661.450195312 l 5
 295.299804688 661.450195312 l 5
 296.450195312 187.650390625 l 5
 490.799804688 187.650390625 l 5
 490.799804688 661.450195312 l 5
 594.299804688 662.599609375 l 5
 594.299804688 764.950195312 l 5
 774.849609375 764.950195312 l 5
 773.700195312 664.900390625 l 5
 682.849609375 664.900390625 l 5
 684 185.349609375 l 5
 592 185.349609375 l 5
 592 93.349609375 l 5
 488.5 92.2001953125 l 5
 488.5 1.349609375 l 5
 295.299804688 1.349609375 l 5
 295.299804688 92.2001953125 l 5
 206.75 91.0498046875 l 5
 206.75 186.5 l 5
 118.200195312 185.349609375 l 5
 117.049804688 663.75 l 5
 8.9501953125 662.599609375 l 5
 8.9501953125 764.950195312 l 5
EndSplineSet
Fore
SplineSet
762 727 m 0
 722 698 709 660 696 600 c 0
 678 515 704 290 604 151 c 0
 550 76 461 1 391 1 c 0
 317 1 247 73 199 145 c 0
 98 297 123 529 101 636 c 0
 94 670 69 712 23 728 c 0
 17 730 3 735 3 748 c 0
 3 765 18 766 24 766 c 0
 155 766 225 746 262 644 c 0
 311 503 298 385 322 286 c 0
 339 216 366 182 395 182 c 0
 424 182 453 216 471 284 c 0
 499 388 480 550 543 666 c 0
 586 743 643 765 756 765 c 0
 768 765 779 764 779 751 c 0
 779 738 768 732 762 727 c 0
EndSplineSet
Validated: 1
EndChar

StartChar: Y
Encoding: 89 89 22
Width: 796
VWidth: 0
Flags: HW
LayerCount: 3
Back
SplineSet
787.365234375 663.040039062 m 5
 688.33984375 663.040039062 l 5
 688.33984375 481.299804688 l 5
 598.634765625 481.299804688 l 5
 598.634765625 377.615234375 l 5
 493.78515625 377.615234375 l 5
 493.78515625 1.3203125 l 5
 302.724609375 1.3203125 l 5
 302.724609375 377.615234375 l 5
 206.030273438 377.615234375 l 5
 206.030273438 481.299804688 l 5
 116.325195312 481.299804688 l 5
 116.325195312 663.040039062 l 5
 11.474609375 663.040039062 l 5
 11.474609375 763.23046875 l 5
 206.030273438 763.23046875 l 5
 206.030273438 665.370117188 l 5
 302.724609375 665.370117188 l 5
 302.724609375 478.969726562 l 5
 499.610351562 478.969726562 l 5
 499.610351562 665.370117188 l 5
 600.96484375 665.370117188 l 5
 600.96484375 763.23046875 l 5
 787.365234375 763.23046875 l 5
 787.365234375 663.040039062 l 5
EndSplineSet
Fore
SplineSet
773 727 m 0
 731 700 709 673 700 636 c 0
 669 503 597 381 523 371 c 0
 487 366 494 257 492 99 c 0
 491 29 447 -3 402 -3 c 0
 353 -3 303 34 303 100 c 0
 303 255 302 364 268 372 c 0
 196 391 129 517 92 643 c 0
 82 678 69 715 23 729 c 0
 18 730 2 735 2 751 c 0
 2 766 19 766 25 766 c 0
 159 766 224 751 268 650 c 0
 328 515 368 448 406 448 c 0
 447 448 487 521 552 665 c 0
 587 744 649 765 765 765 c 0
 779 765 793 764 793 752 c 0
 793 736 780 732 773 727 c 0
EndSplineSet
Validated: 1
EndChar

StartChar: W
Encoding: 87 87 23
Width: 778
VWidth: 0
Flags: HW
LayerCount: 3
Back
SplineSet
769.25 98.9501953125 m 5
 680.700195312 98.9501953125 l 5
 680.700195312 3.5 l 5
 587.549804688 3.5 l 5
 587.549804688 98.9501953125 l 5
 488.650390625 98.9501953125 l 5
 488.650390625 187.5 l 5
 397.799804688 187.5 l 5
 397.799804688 98.9501953125 l 5
 295.450195312 98.9501953125 l 5
 295.450195312 1.2001953125 l 5
 111.450195312 1.2001953125 l 5
 111.450195312 185.200195312 l 5
 10.25 185.200195312 l 5
 10.25 762.5 l 5
 200 762.5 l 5
 200 185.200195312 l 5
 293.150390625 185.200195312 l 5
 293.150390625 288.700195312 l 5
 397.799804688 288.700195312 l 5
 397.799804688 379.549804688 l 5
 297.75 379.549804688 l 5
 297.75 479.599609375 l 5
 393.200195312 479.599609375 l 5
 393.200195312 379.549804688 l 5
 486.349609375 379.549804688 l 5
 486.349609375 288.700195312 l 5
 587.549804688 288.700195312 l 5
 587.549804688 762.5 l 5
 769.25 762.5 l 5
 769.25 98.9501953125 l 5
EndSplineSet
Fore
SplineSet
7 359 m 0
 7 446 7 513 7 646 c 0
 7 739 36 768 72 768 c 0
 129 768 204 686 205 603 c 0
 205 571 206 263 206 237 c 0
 206 212 208 182 231 182 c 0
 256 182 369 267 369 309 c 0
 369 372 288 410 288 460 c 0
 288 485 307 500 327 500 c 0
 337 500 348 497 356 488 c 0
 381 458 502 278 555 278 c 0
 571 278 581 293 581 332 c 0
 581 407 578 612 578 684 c 0
 578 747 610 768 648 768 c 0
 703 768 770 720 771 649 c 0
 773 570 773 479 773 228 c 0
 773 130 704 4 632 4 c 0
 547 4 500 196 446 196 c 0
 376 196 382 1 197 1 c 0
 102 1 7 244 7 359 c 0
EndSplineSet
Validated: 1
EndChar

StartChar: X
Encoding: 88 88 24
Width: 782
VWidth: 0
Flags: HW
LayerCount: 3
Back
SplineSet
777 1.2802734375 m 5
 593.719726562 1.2802734375 l 5
 593.719726562 186.879882812 l 5
 489.3203125 186.879882812 l 5
 488.16015625 286.639648438 l 5
 294.440429688 286.639648438 l 5
 294.440429688 184.559570312 l 5
 202.799804688 184.559570312 l 5
 202.799804688 1.2802734375 l 5
 6.759765625 1.2802734375 l 5
 6.759765625 184.559570312 l 5
 111.16015625 184.559570312 l 5
 111.16015625 284.3203125 l 5
 202.799804688 284.3203125 l 5
 202.799804688 479.200195312 l 5
 111.16015625 479.200195312 l 5
 111.16015625 573.16015625 l 5
 6.759765625 573.16015625 l 5
 6.759765625 762.240234375 l 5
 200.48046875 762.240234375 l 5
 200.48046875 570.83984375 l 5
 289.799804688 570.83984375 l 5
 289.799804688 481.51953125 l 5
 491.639648438 481.51953125 l 5
 491.639648438 570.83984375 l 5
 591.400390625 570.83984375 l 5
 591.400390625 762.240234375 l 5
 774.6796875 762.240234375 l 5
 774.6796875 575.48046875 l 5
 685.360351562 575.48046875 l 5
 685.360351562 481.51953125 l 5
 591.400390625 481.51953125 l 5
 591.400390625 284.3203125 l 5
 680.719726562 284.3203125 l 5
 680.719726562 182.240234375 l 5
 777 182.240234375 l 5
 777 1.2802734375 l 5
EndSplineSet
Fore
SplineSet
754 166 m 0
 769 143 776 121 776 100 c 0
 776 43 728 -1 678 -1 c 0
 654 -1 629 9 609 35 c 0
 573 79 590 129 561 172 c 0
 534 210 467 285 397 324 c 1
 252 276 256 136 175 35 c 0
 155 11 131 0 107 -0 c 0
 56 0 4 45 4 100 c 0
 4 121 13 144 30 166 c 0
 76 225 60 182 147 249 c 0
 188 280 207 339 272 378 c 1
 208 419 152 482 132 501 c 0
 52 576 77 540 31 599 c 0
 14 621 6 644 6 665 c 0
 6 720 57 764 108 764 c 0
 132 764 156 754 176 730 c 0
 212 686 184 647 213 604 c 0
 240 565 297 495 383 436 c 1
 450 468 485 496 531 563 c 1
 560 606 569 684 605 728 c 0
 625 752 650 763 674 763 c 0
 725 763 776 718 776 663 c 0
 776 642 767 619 750 597 c 0
 704 538 710 586 633 507 c 0
 580 451 579 430 514 378 c 1
 593 312 716 223 754 166 c 0
EndSplineSet
Validated: 1
EndChar

StartChar: Z
Encoding: 90 90 25
Width: 766
VWidth: 0
Flags: HW
LayerCount: 3
Back
SplineSet
162.75 760.580078125 m 5
 735.712890625 760.580078125 l 5
 735.712890625 571.907226562 l 5
 644.26953125 571.907226562 l 5
 644.26953125 482.780273438 l 5
 544.724609375 482.780273438 l 5
 544.724609375 375.1328125 l 5
 735.712890625 375.1328125 l 5
 735.712890625 286.004882812 l 5
 347.950195312 286.004882812 l 5
 347.950195312 186.459960938 l 5
 256.5078125 186.459960938 l 5
 256.5078125 95.017578125 l 5
 646.584960938 95.017578125 l 5
 646.584960938 184.14453125 l 5
 831.78515625 184.14453125 l 5
 831.78515625 92.7021484375 l 5
 735.712890625 92.7021484375 l 5
 735.712890625 1.259765625 l 5
 60.8896484375 1.259765625 l 5
 60.8896484375 181.830078125 l 5
 165.065429688 181.830078125 l 5
 165.065429688 286.004882812 l 5
 60.8896484375 286.004882812 l 5
 60.8896484375 377.447265625 l 5
 347.950195312 377.447265625 l 5
 347.950195312 480.46484375 l 5
 450.967773438 480.46484375 l 5
 450.967773438 569.592773438 l 5
 544.724609375 569.592773438 l 5
 544.724609375 663.349609375 l 5
 254.192382812 663.349609375 l 5
 254.192382812 571.907226562 l 5
 60.8896484375 571.907226562 l 5
 60.8896484375 661.03515625 l 5
 162.75 661.03515625 l 5
 162.75 760.580078125 l 5
EndSplineSet
Fore
SplineSet
57 567 m 4
 24 567 6 590 6 617 c 4
 6 646 27 677 69 685 c 4
 180 706 147 764 420 764 c 4
 547 764 684 752 684 661 c 4
 684 579 569 468 453 374 c 5
 481 374 592 374 634 374 c 7
 661 374 670 367 670 357 c 7
 670 332 612 288 597 287 c 4
 588 287 567 287 539 287 c 4
 482 287 398 287 329 287 c 5
 257 229 206 178 206 142 c 7
 206 104 301 94 382 94 c 7
 407 94 430 95 450 96 c 4
 630 112 572 205 700 205 c 7
 744 205 761 187 761 164 c 7
 761 -2 407 -2 263 -2 c 7
 117 -2 6 19 6 94 c 7
 6 148 65 219 142 287 c 5
 85 287 91 287 59 287 c 28
 58 287 l 7
 30 287 18 296 18 310 c 4
 18 337 61 376 93 377 c 4
 148 378 176 378 256 378 c 5
 376 474 495 565 495 618 c 4
 495 656 446 663 396 663 c 4
 157 663 260 567 57 567 c 4
EndSplineSet
Validated: 1
EndChar

StartChar: a
Encoding: 97 97 27
Width: 696
VWidth: 0
Flags: HW
LayerCount: 3
Back
SplineSet
669.365234375 94.419921875 m 5
 476.897460938 94.419921875 l 5
 476.897460938 185.467773438 l 5
 385.849609375 185.467773438 l 5
 385.849609375 94.419921875 l 5
 102.334960938 94.419921875 l 5
 102.334960938 187.772460938 l 5
 0.9150390625 187.772460938 l 5
 0.9150390625 478.202148438 l 5
 100.030273438 478.202148438 l 5
 100.030273438 568.09765625 l 5
 578.317382812 568.09765625 l 5
 578.317382812 186.620117188 l 5
 669.365234375 186.620117188 l 5
 669.365234375 94.419921875 l 5
385.849609375 185.467773438 m 5
 385.849609375 478.202148438 l 5
 191.077148438 478.202148438 l 5
 191.077148438 185.467773438 l 5
 385.849609375 185.467773438 l 5
EndSplineSet
Fore
SplineSet
295 477 m 4
 167 477 166 365 166 336 c 4
 167 299 185 181 298 181 c 4
 377 181 418 233 418 328 c 4
 418 427 390 477 295 477 c 4
455 167 m 4
 453 167 l 4
 445 167 390 89 275 89 c 4
 111 89 5 193 5 329 c 4
 5 522 165 585 303 585 c 4
 361 585 428 576 472 551 c 4
 479 548 484 545 491 545 c 4
 508 545 524 556 542 556 c 4
 586 556 598 509 598 460 c 4
 598 422 593 381 593 352 c 4
 594 248 591 205 651 159 c 4
 674 141 693 122 693 108 c 4
 693 99 683 92 658 92 c 4
 565 92 496 111 455 167 c 4
EndSplineSet
Validated: 1
EndChar

StartChar: b
Encoding: 98 98 28
Width: 652
VWidth: 0
Flags: HW
LayerCount: 3
Back
SplineSet
679.200195312 186.640625 m 5
 584.080078125 186.640625 l 5
 584.080078125 95 l 5
 105 95 l 5
 105 666.880859375 l 5
 2.919921875 666.880859375 l 5
 2.919921875 763.16015625 l 5
 288.280273438 763.16015625 l 5
 288.280273438 478.959960938 l 5
 584.080078125 478.959960938 l 5
 584.080078125 379.200195312 l 5
 679.200195312 379.200195312 l 5
 679.200195312 186.640625 l 5
484.3203125 184.3203125 m 5
 484.3203125 381.520507812 l 5
 288.280273438 381.520507812 l 5
 288.280273438 184.3203125 l 5
 484.3203125 184.3203125 l 5
EndSplineSet
Fore
SplineSet
510 308 m 3
 510 397 458 421 411 421 c 3
 333 421 288 358 288 308 c 3
 288 235 310 185 380 185 c 19
 450 185 510 228 510 308 c 3
6 748 m 3
 6 770 33 770 55 770 c 11
 129 770 202 770 202 770 c 2
 281 770 282 754 290 600 c 0
 292 547 290 497 327 497 c 3
 360 497 390 529 467 529 c 3
 580 529 646 436 646 310 c 3
 646 109 493 89 401 89 c 3
 303 89 275 107 253 107 c 3
 219 107 155 88 118 88 c 3
 87 88 79 110 79 131 c 3
 79 160 105 186 105 259 c 3
 105 318 108 434 108 524 c 3
 108 553 108 578 107 600 c 0
 100 751 6 714 6 748 c 3
EndSplineSet
Validated: 1
EndChar

StartChar: c
Encoding: 99 99 29
Width: 564
VWidth: 0
Flags: HW
LayerCount: 3
Back
SplineSet
580.25 381.75 m 5
 387.049804688 381.75 l 5
 387.049804688 478.350585938 l 5
 195 478.350585938 l 5
 195 188.549804688 l 5
 384.75 188.549804688 l 5
 384.75 289.75 l 5
 577.950195312 289.75 l 5
 577.950195312 188.549804688 l 5
 488.25 188.549804688 l 5
 488.25 97.7001953125 l 5
 100.700195312 97.7001953125 l 5
 100.700195312 193.150390625 l 5
 13.2998046875 193.150390625 l 5
 13.2998046875 478.350585938 l 5
 100.700195312 478.350585938 l 5
 100.700195312 570.350585938 l 5
 485.950195312 570.350585938 l 5
 485.950195312 480.650390625 l 5
 580.25 480.650390625 l 5
 580.25 381.75 l 5
EndSplineSet
Fore
SplineSet
310 90 m 4
 104 90 4 199 4 331 c 4
 4 522 153 583 289 583 c 4
 412 583 523 514 523 446 c 4
 523 411 488 379 450 379 c 4
 381 379 375 477 293 477 c 4
 175 477 162 393 162 348 c 4
 162 247 213 185 301 185 c 4
 396 185 461 286 513 286 c 4
 539 286 558 257 558 236 c 4
 558 169 430 90 310 90 c 4
EndSplineSet
Validated: 1
EndChar

StartChar: d
Encoding: 100 100 30
Width: 692
VWidth: 0
Flags: HW
LayerCount: 3
Back
SplineSet
676.04296875 89.962890625 m 5
 487.032226562 89.962890625 l 5
 487.032226562 185.620117188 l 5
 394.83203125 185.620117188 l 5
 394.83203125 92.267578125 l 5
 107.860351562 92.267578125 l 5
 107.860351562 183.315429688 l 5
 4.134765625 183.315429688 l 5
 4.134765625 374.629882812 l 5
 107.860351562 374.629882812 l 5
 107.860351562 476.05078125 l 5
 390.22265625 476.05078125 l 5
 390.22265625 660.450195312 l 5
 289.955078125 660.450195312 l 5
 289.955078125 756.107421875 l 5
 482.422851562 756.107421875 l 5
 482.422851562 655.840820312 l 5
 583.842773438 655.840820312 l 5
 581.537109375 185.620117188 l 5
 676.04296875 185.620117188 l 5
 676.04296875 89.962890625 l 5
394.83203125 185.620117188 m 5
 394.83203125 376.935546875 l 5
 200.059570312 376.935546875 l 5
 200.059570312 185.620117188 l 5
 394.83203125 185.620117188 l 5
EndSplineSet
Fore
SplineSet
403 309 m 0
 403 374 346 427 273 427 c 0
 222 427 158 397 158 305 c 0
 158 228 211 188 281 188 c 8
 353 188 403 236 403 309 c 0
653 90 m 0
 559 90 493 113 449 167 c 1
 449 167 365 87 255 87 c 0
 161 87 6 105 6 306 c 0
 6 443 97 517 225 517 c 0
 315 517 365 486 379 486 c 0
 387 486 389 494 389 517 c 0
 389 720 262 697 261 751 c 4
 261 760 271 768 295 768 c 4
 486 768 577 679 577 486 c 0
 577 448 574 407 574 362 c 0
 574 253 584 206 645 159 c 0
 668 141 687 120 687 106 c 0
 687 96 677 90 653 90 c 0
EndSplineSet
Validated: 1
EndChar

StartChar: e
Encoding: 101 101 31
Width: 574
VWidth: 0
Flags: HW
LayerCount: 3
Back
SplineSet
588.405273438 94.1279296875 m 5
 108.75 94.1279296875 l 5
 108.75 185.928710938 l 5
 7.76953125 185.928710938 l 5
 7.76953125 476.24609375 l 5
 112.192382812 476.24609375 l 5
 112.192382812 568.045898438 l 5
 482.834960938 568.045898438 l 5
 482.834960938 476.24609375 l 5
 586.110351562 477.393554688 l 5
 586.110351562 286.908203125 l 5
 200.549804688 286.908203125 l 5
 200.549804688 182.485351562 l 5
 588.405273438 182.485351562 l 5
 588.405273438 94.1279296875 l 5
399.067382812 378.708007812 m 5
 399.067382812 478.541015625 l 5
 200.549804688 478.541015625 l 5
 200.549804688 378.708007812 l 5
 399.067382812 378.708007812 l 5
EndSplineSet
Fore
SplineSet
173 285 m 4
 173 252 232 185 316 185 c 4
 380 185 451 201 500 201 c 4
 540 201 566 190 566 154 c 4
 566 102 434 91 313 91 c 4
 106 91 4 203 4 336 c 4
 4 528 154 589 291 589 c 4
 412 589 570 545 570 390 c 4
 570 293 465 276 366 276 c 4
 260 276 215 304 192 304 c 4
 179 304 173 295 173 285 c 4
298 357 m 4
 345 357 420 367 420 418 c 4
 420 464 376 489 297 489 c 4
 226 489 184 460 184 425 c 4
 184 369 242 357 298 357 c 4
EndSplineSet
Validated: 1
EndChar

StartChar: f
Encoding: 102 102 32
Width: 498
VWidth: 0
Flags: HW
LayerCount: 3
Back
SplineSet
220.200195312 765.479492188 m 5
 505.559570312 765.479492188 l 5
 505.559570312 664.559570312 l 5
 308.360351562 664.559570312 l 5
 308.360351562 381.51953125 l 5
 503.240234375 381.51953125 l 5
 503.240234375 288.719726562 l 5
 310.6796875 288.719726562 l 5
 310.6796875 95 l 5
 112.3203125 95 l 5
 112.3203125 291.040039062 l 5
 24.16015625 291.040039062 l 5
 24.16015625 381.51953125 l 5
 112.3203125 381.51953125 l 5
 112.3203125 664.559570312 l 5
 220.200195312 664.559570312 l 5
 220.200195312 765.479492188 l 5
EndSplineSet
Fore
SplineSet
383 771 m 0
 435 770 494 738 494 703 c 0
 494 702 l 0
 493 662 473 642 446 642 c 0
 436 642 425 644 413 650 c 0
 399 657 386 660 372 660 c 0
 345 660 320 646 310 615 c 0
 304 598 302 575 302 550 c 0
 302 511 307 462 307 411 c 0
 307 390 326 386 353 386 c 0
 368 386 386 387 402 387 c 0
 444 387 481 381 481 331 c 0
 481 288 435 285 390 285 c 0
 381 285 370 285 361 285 c 0
 329 285 304 282 304 264 c 1
 304 257 304 251 304 244 c 0
 304 219 302 195 295 171 c 0
 265 73 181 68 79 61 c 0
 78 61 76 61 75 61 c 0
 58 61 49 68 49 77 c 0
 49 85 56 95 70 103 c 0
 110 126 105 149 112 180 c 0
 117 201 118 213 118 237 c 0
 118 244 118 253 118 262 c 0
 116 316 4 246 4 338 c 0
 4 420 114 357 114 407 c 0
 114 421 114 435 114 449 c 0
 114 538 119 621 149 676 c 0
 188 748 253 771 359 771 c 0
 367 771 375 771 383 771 c 0
EndSplineSet
Validated: 1
EndChar

StartChar: g
Encoding: 103 103 33
Width: 692
VWidth: 0
Flags: HW
LayerCount: 3
Back
SplineSet
676.759765625 1.240234375 m 5
 584.360351562 1.240234375 l 5
 584.360351562 -88.849609375 l 5
 105.03515625 -88.849609375 l 5
 105.03515625 1.240234375 l 5
 3.39453125 1.240234375 l 5
 3.39453125 94.794921875 l 5
 102.724609375 94.794921875 l 5
 102.724609375 194.125 l 5
 3.39453125 194.125 l 5
 3.39453125 385.85546875 l 5
 105.03515625 385.85546875 l 5
 105.03515625 475.9453125 l 5
 480.41015625 475.9453125 l 5
 480.41015625 570.655273438 l 5
 674.450195312 570.655273438 l 5
 674.450195312 478.254882812 l 5
 584.360351562 478.254882812 l 5
 584.360351562 194.125 l 5
 480.41015625 194.125 l 5
 480.41015625 97.10546875 l 5
 195.125 97.10546875 l 5
 195.125 1.240234375 l 5
 584.360351562 1.240234375 l 5
 584.360351562 94.794921875 l 5
 676.759765625 94.794921875 l 5
 676.759765625 1.240234375 l 5
392.629882812 191.815429688 m 5
 392.629882812 385.85546875 l 5
 195.125 385.85546875 l 5
 195.125 191.815429688 l 5
 392.629882812 191.815429688 l 5
EndSplineSet
Fore
SplineSet
409 296 m 0
 409 361 351 413 280 413 c 0
 230 413 166 383 166 291 c 0
 166 213 218 175 288 175 c 8
 359 175 409 224 409 296 c 0
557 303 m 0
 555 210 541 87 259 87 c 0
 215 87 163 83 163 42 c 0
 163 11 218 0 319 -0 c 0
 562 0 579 93 618 93 c 0
 639 93 663 73 663 47 c 0
 663 -7 591 -98 339 -98 c 0
 134 -98 5 -22 5 38 c 0
 5 116 102 109 102 126 c 0
 102 129 98 134 88 141 c 0
 42 172 11 215 11 288 c 0
 11 448 130 509 252 509 c 0
 344 509 396 477 428 477 c 0
 438 477 446 481 453 490 c 0
 502 558 563 565 656 565 c 0
 680 565 689 559 689 549 c 0
 689 501 562 489 557 303 c 0
EndSplineSet
Validated: 1
EndChar

StartChar: h
Encoding: 104 104 34
Width: 686
VWidth: 0
Flags: HW
LayerCount: 3
Back
SplineSet
30.0400390625 764.03515625 m 5
 221.02734375 764.03515625 l 5
 221.02734375 658.703125 l 5
 315.942382812 658.703125 l 5
 315.942382812 378.587890625 l 5
 414.330078125 378.587890625 l 5
 414.330078125 476.975585938 l 5
 608.790039062 476.975585938 l 5
 608.790039062 378.587890625 l 5
 701.389648438 378.587890625 l 5
 701.389648438 93.8427734375 l 5
 506.9296875 93.8427734375 l 5
 506.9296875 378.587890625 l 5
 414.330078125 378.587890625 l 5
 414.330078125 288.302734375 l 5
 314.78515625 288.302734375 l 5
 314.78515625 95 l 5
 131.900390625 95 l 5
 131.900390625 661.017578125 l 5
 30.0400390625 661.017578125 l 5
 30.0400390625 764.03515625 l 5
EndSplineSet
Fore
SplineSet
20 778 m 4
 248 778 319 703 319 411 c 4
 319 398 320 393 325 393 c 4
 342 393 401 490 507 490 c 4
 599 490 682 440 682 226 c 4
 682 155 660 117 602 98 c 4
 588 93 576 91 566 91 c 4
 450 91 566 378 449 378 c 4
 409 378 330 321 325 268 c 4
 314 142 289 88 205 88 c 4
 159 88 131 151 131 197 c 4
 130 694 130 698 19 742 c 4
 11 745 4 747 4 762 c 4
 4 775 13 778 20 778 c 4
EndSplineSet
Validated: 1
EndChar

StartChar: i
Encoding: 105 105 35
Width: 408
VWidth: 0
Flags: HW
LayerCount: 3
Back
SplineSet
203.0546875 660.950195312 m 5
 3.240234375 660.950195312 l 5
 3.240234375 764.900390625 l 5
 203.0546875 764.900390625 l 5
 203.0546875 660.950195312 l 5
402.870117188 95 m 5
 206.51953125 95 l 5
 206.51953125 484.235351562 l 5
 108.344726562 484.235351562 l 5
 107.190429688 574.325195312 l 5
 295.455078125 574.325195312 l 5
 295.455078125 484.235351562 l 5
 402.870117188 485.389648438 l 5
 402.870117188 95 l 5
EndSplineSet
Fore
SplineSet
77 787 m 4
 126 787 188 760 188 713 c 4
 188 675 150 646 97 646 c 4
 47 646 2 673 2 723 c 4
 2 769 37 787 77 787 c 4
401 207 m 4
 401 149 349 89 291 89 c 4
 245 89 209 117 209 175 c 4
 209 264 208 380 199 426 c 4
 178 530 88 525 88 556 c 4
 88 577 135 577 157 577 c 4
 363 577 401 446 401 207 c 4
EndSplineSet
Validated: 1
EndChar

StartChar: j
Encoding: 106 106 36
Width: 406
VWidth: 0
Flags: HW
LayerCount: 3
Back
SplineSet
388.615234375 667.075195312 m 5
 190.139648438 667.075195312 l 5
 190.139648438 765.145507812 l 5
 388.615234375 765.145507812 l 5
 388.615234375 667.075195312 l 5
392.1171875 91.498046875 m 5
 283.540039062 90.330078125 l 5
 284.70703125 1.6005859375 l 5
 -8.3349609375 1.6005859375 l 5
 -8.3349609375 93.8330078125 l 5
 193.642578125 95 l 5
 193.642578125 576.009765625 l 5
 392.1171875 574.842773438 l 5
 392.1171875 91.498046875 l 5
EndSplineSet
Fore
SplineSet
258 778 m 4
 308 778 372 748 372 701 c 4
 372 662 333 632 279 632 c 4
 227 632 182 660 182 712 c 4
 182 759 217 778 258 778 c 4
210 232 m 4
 210 304 186 367 186 473 c 4
 186 541 230 577 277 577 c 4
 333 577 394 525 394 412 c 4
 394 337 400 279 400 229 c 4
 400 81 331 -29 148 -29 c 4
 69 -29 6 -2 6 40 c 4
 6 41 l 4
 7 82 28 102 55 102 c 4
 82 102 94 85 126 85 c 4
 195 85 210 168 210 232 c 4
EndSplineSet
Validated: 1
EndChar

StartChar: k
Encoding: 107 107 37
Width: 694
VWidth: 0
Flags: HW
LayerCount: 3
Back
SplineSet
694.155273438 481.719726562 m 5
 594.825195312 481.719726562 l 5
 593.669921875 378.924804688 l 5
 498.959960938 378.924804688 l 5
 497.8046875 291.14453125 l 5
 591.360351562 289.989257812 l 5
 590.205078125 188.349609375 l 5
 693 188.349609375 l 5
 693 98.259765625 l 5
 495.495117188 98.259765625 l 5
 496.650390625 188.349609375 l 5
 392.700195312 188.349609375 l 5
 392.700195312 286.524414062 l 5
 309.540039062 285.370117188 l 5
 309.540039062 93.6396484375 l 5
 18.48046875 94.794921875 l 5
 18.48046875 188.349609375 l 5
 107.415039062 188.349609375 l 5
 110.495117188 481.719726562 110.495117188 639.184570312 107.415039062 660.745117188 c 5
 18.48046875 660.745117188 l 5
 18.48046875 764.694335938 l 5
 212.51953125 764.694335938 l 5
 211.365234375 664.209960938 l 5
 307.23046875 664.209960938 l 5
 309.540039062 381.234375 l 5
 396.165039062 381.234375 l 5
 396.165039062 484.029296875 l 5
 498.959960938 484.029296875 l 5
 500.115234375 575.274414062 l 5
 695.309570312 576.4296875 l 5
 694.155273438 481.719726562 l 5
EndSplineSet
Fore
SplineSet
229 95 m 4
 223 95 219 95 213 95 c 6
 213 95 141 95 67 95 c 20
 45 95 21 95 21 117 c 4
 21 154 120 163 120 238 c 4
 121 353 121 408 121 526 c 4
 121 776 1 700 1 746 c 4
 1 767 44 770 66 770 c 4
 256 770 315 652 315 437 c 4
 315 410 332 401 345 401 c 4
 391 401 497 581 610 581 c 4
 645 581 681 566 681 535 c 4
 681 465 484 397 484 341 c 4
 484 284 691 242 691 141 c 4
 691 104 660 95 606 95 c 4
 533 95 350 277 324 277 c 4
 287 277 351 95 229 95 c 4
EndSplineSet
Validated: 1
EndChar

StartChar: l
Encoding: 108 108 38
Width: 434
VWidth: 0
Flags: HW
LayerCount: 3
Back
SplineSet
27.3505859375 764.25 m 5
 219.400390625 763.099609375 l 5
 219.400390625 664.200195312 l 5
 314.850585938 664.200195312 l 5
 316.000976562 195 l 5
 401.100585938 196.150390625 l 5
 401.100585938 94.9501953125 l 5
 219.400390625 94.9501953125 l 5
 218.250976562 192.700195312 l 5
 117.05078125 191.549804688 l 5
 117.05078125 665.349609375 l 5
 26.2001953125 665.349609375 l 5
 27.3505859375 764.25 l 5
EndSplineSet
Fore
SplineSet
124 404 m 4
 124 444 125 485 125 526 c 4
 125 568 125 604 119 633 c 4
 97 737 4 715 4 746 c 4
 4 767 49 770 71 770 c 4
 169 770 257 730 288 641 c 4
 310 578 314 508 314 444 c 4
 314 397 312 354 312 315 c 4
 312 133 429 147 429 112 c 4
 429 91 383 91 361 91 c 4
 176 91 124 213 124 404 c 4
EndSplineSet
Validated: 1
EndChar

StartChar: m
Encoding: 109 109 39
Width: 808
VWidth: 0
Flags: HW
LayerCount: 3
Back
SplineSet
30.037109375 664.625 m 5
 226.5 664.625 l 5
 227.662109375 570.462890625 l 5
 322.987304688 570.462890625 l 5
 321.825195312 480.950195312 l 5
 515.962890625 480.950195312 l 5
 515.962890625 573.950195312 l 5
 713.587890625 573.950195312 l 5
 713.587890625 286.8125 l 5
 804.262695312 285.650390625 l 5
 804.262695312 91.5126953125 l 5
 608.962890625 91.5126953125 l 5
 608.962890625 283.325195312 l 5
 515.962890625 284.487304688 l 5
 514.799804688 185.674804688 l 5
 410.174804688 185.674804688 l 5
 409.012695312 283.325195312 l 5
 324.150390625 284.487304688 l 5
 324.150390625 95 l 5
 120.712890625 95 l 5
 120.712890625 570.462890625 l 5
 28.875 570.462890625 l 5
 30.037109375 664.625 l 5
EndSplineSet
Fore
SplineSet
256 566 m 5
 266 571 293 575 314 575 c 4
 387 575 382 496 446 496 c 4
 518 496 503 579 589 579 c 4
 685 579 696 442 723 377 c 4
 754 301 803 265 803 182 c 4
 803 133 765 91 715 91 c 4
 584 91 633 300 559 300 c 4
 508 300 517 226 466 226 c 4
 406 226 424 307 362 307 c 4
 340 307 321 252 321 226 c 4
 321 167 268 90 209 90 c 4
 163 90 126 135 126 194 c 4
 126 285 125 470 116 516 c 4
 95 622 3 617 3 648 c 4
 3 669 50 669 72 669 c 4
 134 669 240 640 256 566 c 5
EndSplineSet
Validated: 1
EndChar

StartChar: n
Encoding: 110 110 40
Width: 804
VWidth: 0
Flags: HW
LayerCount: 3
Back
SplineSet
799.03515625 98.46484375 m 5
 601.530273438 98.46484375 l 5
 602.684570312 186.245117188 l 5
 505.665039062 187.399414062 l 5
 504.509765625 481.924804688 l 5
 319.709960938 480.76953125 l 5
 318.5546875 93.8447265625 l 5
 116.4296875 95 l 5
 116.4296875 570.859375 l 5
 28.650390625 572.014648438 l 5
 29.8046875 664.415039062 l 5
 228.46484375 664.415039062 l 5
 229.620117188 574.325195312 l 5
 604.995117188 574.325195312 l 5
 604.995117188 484.234375 l 5
 704.325195312 484.234375 l 5
 705.48046875 192.01953125 l 5
 797.879882812 192.01953125 l 5
 799.03515625 98.46484375 l 5
EndSplineSet
Fore
SplineSet
254 580 m 4
 259 575 271 574 288 574 c 4
 328 574 393 582 444 582 c 4
 690 582 690 365 690 314 c 4
 690 134 799 147 799 112 c 4
 799 92 753 92 731 92 c 4
 547 92 496 204 496 393 c 4
 496 433 447 465 403 465 c 28
 360 465 313 436 313 395 c 4
 313 349 310 242 310 203 c 4
 310 116 291 91 188 91 c 4
 119 91 119 141 119 174 c 4
 119 218 122 318 122 400 c 4
 122 453 121 499 116 518 c 4
 94 621 3 599 3 630 c 4
 3 650 47 654 69 654 c 4
 144 654 212 630 254 580 c 4
EndSplineSet
Validated: 1
EndChar

StartChar: o
Encoding: 111 111 41
Width: 576
VWidth: 0
Flags: HW
LayerCount: 3
Back
SplineSet
575.400390625 184.66015625 m 5
 486.48046875 184.66015625 l 5
 486.48046875 94.599609375 l 5
 98.8798828125 93.4599609375 l 5
 98.8798828125 185.799804688 l 5
 11.099609375 184.66015625 l 5
 11.099609375 476.5 l 5
 96.599609375 476.5 l 5
 97.740234375 568.83984375 l 5
 486.48046875 568.83984375 l 5
 486.48046875 474.219726562 l 5
 575.400390625 473.080078125 l 5
 575.400390625 184.66015625 l 5
387.299804688 185.799804688 m 5
 387.299804688 370.479492188 l 5
 289.259765625 370.479492188 l 5
 289.259765625 473.080078125 l 5
 194.639648438 470.799804688 l 5
 195.780273438 283.83984375 l 5
 289.259765625 283.83984375 l 5
 290.400390625 185.799804688 l 5
 387.299804688 185.799804688 l 5
EndSplineSet
Fore
SplineSet
174 397 m 4
 174 298 238 177 318 177 c 4
 374 177 414 216 414 291 c 4
 414 397 347 505 264 505 c 4
 202 505 174 460 174 397 c 4
288 608 m 4
 434 608 571 517 571 335 c 28
 571 193 467 88 283 88 c 4
 122 88 8 194 8 329 c 4
 8 522 153 608 288 608 c 4
EndSplineSet
Validated: 1
EndChar

StartChar: p
Encoding: 112 112 42
Width: 682
VWidth: 0
Flags: HW
LayerCount: 3
Back
SplineSet
693.602539062 287.262695312 m 5
 592.767578125 287.262695312 l 5
 591.594726562 186.427734375 l 5
 300.815429688 186.427734375 l 5
 301.987304688 0 l 5
 11.20703125 1.171875 l 5
 11.20703125 91.455078125 l 5
 96.7998046875 91.455078125 l 5
 97.97265625 572.1796875 l 5
 7.6904296875 571.006835938 l 5
 7.6904296875 669.497070312 l 5
 203.497070312 669.497070312 l 5
 203.497070312 578.041992188 l 5
 589.25 578.041992188 l 5
 589.25 484.2421875 l 5
 692.4296875 484.2421875 l 5
 693.602539062 287.262695312 l 5
498.967773438 286.08984375 m 5
 498.967773438 484.2421875 l 5
 304.33203125 484.2421875 l 5
 304.33203125 286.08984375 l 5
 498.967773438 286.08984375 l 5
EndSplineSet
Fore
SplineSet
285 390 m 0
 285 325 342 268 415 268 c 0
 466 268 529 304 529 397 c 0
 529 475 477 528 407 528 c 8
 336 528 285 463 285 390 c 0
115 432 m 0
 110 620 3 608 3 657 c 0
 3 667 12 674 36 674 c 0
 129 674 190 665 240 597 c 0
 247 588 255 585 265 585 c 0
 287 585 317 625 416 625 c 0
 509 625 675 577 675 403 c 0
 675 277 598 179 483 179 c 0
 341 179 337 207 309 207 c 0
 299 207 299 205 299 174 c 0
 298 20 294 -4 213 -4 c 2
 213 -4 140 -4 65 -4 c 16
 43 -4 15 -4 15 18 c 0
 15 52 111 27 118 179 c 0
 118 252 116 373 115 432 c 0
EndSplineSet
Validated: 1
EndChar

StartChar: q
Encoding: 113 113 43
Width: 686
VWidth: 0
Flags: HW
LayerCount: 3
Back
SplineSet
669.169921875 483.439453125 m 5
 574.400390625 482.26953125 l 5
 572.059570312 95 l 5
 669.169921875 95 l 5
 670.33984375 0.2294921875 l 5
 370.8203125 0.2294921875 l 5
 370.8203125 185.08984375 l 5
 84.169921875 183.919921875 l 5
 83 285.709960938 l 5
 -19.9599609375 285.709960938 l 5
 -19.9599609375 486.950195312 l 5
 86.509765625 485.780273438 l 5
 85.33984375 574.700195312 l 5
 374.330078125 573.530273438 l 5
 374.330078125 483.439453125 l 5
 469.099609375 483.439453125 l 5
 469.099609375 577.040039062 l 5
 669.169921875 575.870117188 l 5
 669.169921875 483.439453125 l 5
374.330078125 290.389648438 m 5
 374.330078125 483.439453125 l 5
 182.450195312 483.439453125 l 5
 182.450195312 290.389648438 l 5
 374.330078125 290.389648438 l 5
EndSplineSet
Fore
SplineSet
385 387 m 4
 385 459 334 524 263 524 c 20
 193 524 141 471 141 394 c 4
 141 302 204 266 255 266 c 4
 327 266 385 323 385 387 c 4
570 359 m 4
 569 300 568 249 568 177 c 4
 575 26 670 51 670 18 c 4
 670 -4 642 -4 620 -4 c 12
 545 -4 472 -4 472 -4 c 6
 392 -4 388 19 387 172 c 4
 387 203 387 205 377 205 c 4
 349 205 344 177 203 177 c 4
 88 177 6 274 6 399 c 4
 6 575 140 628 234 628 c 4
 431 628 431 499 449 499 c 4
 459 499 456 503 463 512 c 4
 512 580 556 609 649 609 c 4
 673 609 683 603 683 593 c 4
 683 545 575 545 570 359 c 4
EndSplineSet
Validated: 1
EndChar

StartChar: r
Encoding: 114 114 44
Width: 694
VWidth: 0
Flags: HW
LayerCount: 3
Back
SplineSet
703.299804688 376.75 m 5
 506.650390625 377.900390625 l 5
 507.799804688 481.400390625 l 5
 408.900390625 481.400390625 l 5
 410.049804688 377.900390625 l 5
 320.349609375 376.75 l 5
 321.5 95 l 5
 122.549804688 96.150390625 l 5
 121.400390625 569.950195312 l 5
 35.150390625 569.950195312 l 5
 35.150390625 663.099609375 l 5
 222.599609375 663.099609375 l 5
 222.599609375 572.25 l 5
 606.700195312 573.400390625 l 5
 606.700195312 481.400390625 l 5
 703.299804688 481.400390625 l 5
 703.299804688 376.75 l 5
EndSplineSet
Fore
SplineSet
323 226 m 7
 323 168 269 93 211 93 c 7
 165 93 120 136 120 194 c 7
 120 283 120 473 111 519 c 4
 90 623 9 618 9 649 c 7
 9 669 55 669 77 669 c 7
 157 669 213 637 249 583 c 4
 254 577 262 575 272 575 c 7
 310 575 366 606 422 606 c 7
 531 606 689 518 689 438 c 7
 689 406 651 381 623 381 c 7
 564 381 515 461 459 461 c 4
 458 461 l 4
 404 461 322 373 322 308 c 7
 322 267 323 269 323 226 c 7
EndSplineSet
Validated: 1
EndChar

StartChar: s
Encoding: 115 115 45
Width: 602
VWidth: 0
Flags: HW
LayerCount: 3
Back
SplineSet
605.232421875 183.858398438 m 5
 509.575195312 183.858398438 l 5
 509.575195312 95.115234375 l 5
 31.287109375 95.115234375 l 5
 32.4404296875 191.92578125 l 5
 409.307617188 191.92578125 l 5
 408.155273438 282.973632812 l 5
 123.487304688 281.8203125 l 5
 122.334960938 376.325195312 l 5
 32.4404296875 377.478515625 l 5
 32.4404296875 480.05078125 l 5
 121.182617188 480.05078125 l 5
 121.182617188 568.79296875 l 5
 602.927734375 569.9453125 l 5
 602.927734375 480.05078125 l 5
 227.212890625 480.05078125 l 5
 226.059570312 377.478515625 l 5
 513.032226562 376.325195312 l 5
 513.032226562 285.278320312 l 5
 605.232421875 285.278320312 l 5
 605.232421875 183.858398438 l 5
EndSplineSet
Fore
SplineSet
3 195 m 7
 3 226 47 241 78 241 c 7
 142 241 228 197 311 197 c 7
 362 197 428 207 428 252 c 7
 428 331 34 259 34 454 c 7
 34 578 175 606 305 606 c 31
 414 606 566 567 566 488 c 7
 566 458 541 447 503 447 c 7
 447 447 454 504 291 504 c 7
 254 504 187 497 187 461 c 7
 187 354 596 449 596 252 c 7
 596 158 443 88 330 88 c 7
 138 88 3 149 3 195 c 7
EndSplineSet
Validated: 1
EndChar

StartChar: t
Encoding: 116 116 46
Width: 596
VWidth: 0
Flags: HW
LayerCount: 3
Back
SplineSet
586.599609375 88.2802734375 m 5
 490.3203125 89.4404296875 l 5
 490.3203125 2.4404296875 l 5
 206.120117188 1.2802734375 l 5
 206.120117188 85.9599609375 l 5
 99.400390625 85.9599609375 l 5
 99.400390625 478.040039062 l 5
 8.919921875 476.879882812 l 5
 10.080078125 570.83984375 l 5
 99.400390625 570.83984375 l 5
 99.400390625 661.3203125 l 5
 295.440429688 660.16015625 l 5
 296.599609375 570.83984375 l 5
 584.280273438 570.83984375 l 5
 584.280273438 478.040039062 l 5
 297.759765625 478.040039062 l 5
 298.919921875 92.919921875 l 5
 389.400390625 91.759765625 l 5
 389.400390625 185.719726562 l 5
 586.599609375 184.559570312 l 5
 586.599609375 88.2802734375 l 5
EndSplineSet
Fore
SplineSet
172 682 m 27
 236 682 298 668 298 589 c 3
 298 581 306 578 314 578 c 3
 550 578 551 577 551 525 c 3
 551 471 505 470 309 470 c 3
 302 470 296 466 296 459 c 3
 296 158 303 107 354 107 c 3
 449 107 387 202 517 202 c 3
 570 202 591 181 591 134 c 3
 591 103 552 70 522 70 c 3
 467 70 467 -7 343 -7 c 3
 131 -7 100 134 100 278 c 27
 100 350 103 386 103 458 c 27
 103 465 96 471 89 471 c 3
 34 471 3 486 3 525 c 27
 3 564 28 576 94 576 c 3
 102 576 106 585 106 593 c 27
 106 638 127 682 172 682 c 27
EndSplineSet
Validated: 1
EndChar

StartChar: u
Encoding: 117 117 47
Width: 772
VWidth: 0
Flags: HW
LayerCount: 3
Back
SplineSet
3.0673828125 568.677734375 m 5
 292.344726562 569.830078125 l 5
 292.344726562 197.573242188 l 5
 377.629882812 197.573242188 l 5
 377.629882812 287.467773438 l 5
 481.35546875 287.467773438 l 5
 481.35546875 566.373046875 l 5
 673.822265625 566.373046875 l 5
 673.822265625 201.030273438 l 5
 763.717773438 201.030273438 l 5
 763.717773438 95 l 5
 577.012695312 95 l 5
 577.012695312 194.115234375 l 5
 484.8125 194.115234375 l 5
 484.8125 96.1533203125 l 5
 195.53515625 95 l 5
 195.53515625 194.115234375 l 5
 92.962890625 194.115234375 l 5
 92.962890625 476.477539062 l 5
 4.2197265625 476.477539062 l 5
 3.0673828125 568.677734375 l 5
EndSplineSet
Fore
SplineSet
655 366 m 7
 655 257 665 210 726 163 c 4
 749 145 768 124 768 110 c 7
 768 100 758 94 734 94 c 7
 640 94 584 117 540 171 c 5
 540 171 451 91 341 91 c 7
 247 91 103 105 103 331 c 7
 103 554 4 516 4 550 c 7
 4 572 31 572 53 572 c 7
 127 572 197 572 197 572 c 6
 263 572 277 534 277 389 c 7
 277 254 284 211 333 211 c 7
 393 211 471 313 471 381 c 7
 471 565 481 574 568 574 c 7
 655 574 655 567 655 366 c 7
EndSplineSet
Validated: 1
EndChar

StartChar: v
Encoding: 118 118 48
Width: 668
VWidth: 0
Flags: HW
LayerCount: 3
Back
SplineSet
670.6953125 282.780273438 m 5
 567.64453125 282.780273438 l 5
 567.64453125 190.03515625 l 5
 481.76953125 190.03515625 l 5
 481.76953125 95 l 5
 290.5546875 95 l 5
 290.5546875 193.469726562 l 5
 190.940429688 193.469726562 l 5
 190.940429688 286.21484375 l 5
 94.759765625 286.21484375 l 5
 94.759765625 476.28515625 l 5
 3.16015625 477.4296875 l 5
 3.16015625 566.740234375 l 5
 287.120117188 566.740234375 l 5
 288.264648438 286.21484375 l 5
 478.334960938 286.21484375 l 5
 478.334960938 570.174804688 l 5
 669.549804688 569.030273438 l 5
 670.6953125 282.780273438 l 5
EndSplineSet
Fore
SplineSet
662 449 m 7
 662 254 470 90 385 90 c 7
 294 90 89 254 89 445 c 7
 89 511 4 529 4 549 c 7
 4 571 31 571 53 571 c 7
 127 571 197 571 197 571 c 6
 263 571 278 527 278 449 c 7
 278 318 345 262 375 262 c 7
 409 262 472 318 472 453 c 7
 472 535 502 573 589 573 c 7
 662 573 662 546 662 449 c 7
EndSplineSet
Validated: 1
EndChar

StartChar: w
Encoding: 119 119 49
Width: 756
VWidth: 0
Flags: HW
LayerCount: 3
Back
SplineSet
759.6171875 285.797851562 m 5
 667.075195312 285.797851562 l 5
 667.075195312 95 l 5
 476.27734375 95 l 5
 476.27734375 196.682617188 l 5
 373.452148438 196.682617188 l 5
 373.452148438 95 l 5
 192.9375 95 l 5
 192.9375 285.797851562 l 5
 91.2548828125 285.797851562 l 5
 91.2548828125 476.595703125 l 5
 3.2822265625 476.595703125 l 5
 2.1396484375 569.137695312 l 5
 288.907226562 569.137695312 l 5
 288.907226562 390.908203125 l 5
 373.452148438 390.908203125 l 5
 373.452148438 476.595703125 l 5
 476.27734375 476.595703125 l 5
 476.27734375 390.908203125 l 5
 571.10546875 390.908203125 l 5
 571.10546875 569.137695312 l 5
 759.6171875 569.137695312 l 5
 759.6171875 285.797851562 l 5
EndSplineSet
Fore
SplineSet
576 443 m 7
 576 525 597 572 684 572 c 7
 751 572 752 545 752 448 c 7
 752 311 665 91 571 91 c 7
 498 91 469 207 421 207 c 7
 378 207 348 91 277 91 c 7
 191 91 91 304 91 444 c 7
 91 510 6 528 6 548 c 7
 6 570 33 570 55 570 c 7
 129 570 194 570 194 570 c 6
 260 570 272 517 272 439 c 7
 272 415 290 355 321 355 c 7
 370 355 370 481 421 481 c 7
 474 481 480 355 528 355 c 7
 554 355 576 413 576 443 c 7
EndSplineSet
Validated: 1
EndChar

StartChar: x
Encoding: 120 120 50
Width: 768
VWidth: 0
Flags: HW
LayerCount: 3
Back
SplineSet
764.73046875 561.919921875 m 5
 671.985351562 561.919921875 l 5
 671.985351562 472.610351562 l 5
 572.370117188 472.610351562 l 5
 572.370117188 384.4453125 l 5
 477.334960938 384.4453125 l 5
 477.334960938 281.395507812 l 5
 570.080078125 281.395507812 l 5
 570.080078125 192.084960938 l 5
 671.985351562 192.084960938 l 5
 671.985351562 97.0498046875 l 5
 477.334960938 97.0498046875 l 5
 477.334960938 192.084960938 l 5
 289.5546875 192.084960938 l 5
 289.5546875 90.1796875 l 5
 196.809570312 90.1796875 l 5
 196.809570312 -0.275390625 l 5
 2.16015625 0.8701171875 l 5
 3.3046875 92.4697265625 l 5
 93.759765625 92.4697265625 l 5
 93.759765625 195.520507812 l 5
 193.375 194.375 l 5
 193.375 284.830078125 l 5
 282.684570312 284.830078125 l 5
 282.684570312 383.299804688 l 5
 193.375 384.4453125 l 5
 193.375 472.610351562 l 5
 91.4697265625 472.610351562 l 5
 91.4697265625 565.35546875 l 5
 289.5546875 565.35546875 l 5
 289.5546875 476.044921875 l 5
 477.334960938 476.044921875 l 5
 477.334960938 568.790039062 l 5
 570.080078125 568.790039062 l 5
 570.080078125 664.969726562 l 5
 764.73046875 663.825195312 l 5
 764.73046875 561.919921875 l 5
EndSplineSet
Fore
SplineSet
90 520 m 3
 90 560 120 584 174 584 c 3
 254 584 356 445 390 445 c 3
 424 445 605 681 677 681 c 3
 729 681 763 662 763 621 c 3
 763 527 494 368 494 331 c 3
 494 302 678 210 678 146 c 3
 678 102 656 90 600 90 c 3
 510 90 423 217 395 217 c 3
 345 217 229 -10 59 -10 c 3
 29 -10 3 13 3 43 c 3
 3 127 266 285 266 331 c 3
 266 379 90 458 90 520 c 3
EndSplineSet
Validated: 1
EndChar

StartChar: y
Encoding: 121 121 51
Width: 684
VWidth: 0
Flags: HW
LayerCount: 3
Back
SplineSet
678.584960938 190.993164062 m 5
 578.317382812 190.993164062 l 5
 578.317382812 95.3349609375 l 5
 482.66015625 95.3349609375 l 5
 483.8125 1.982421875 l 5
 94.267578125 -1.474609375 l 5
 94.267578125 98.79296875 l 5
 4.3720703125 98.79296875 l 5
 4.3720703125 197.908203125 l 5
 200.297851562 197.908203125 l 5
 200.297851562 98.79296875 l 5
 378.934570312 98.79296875 l 5
 378.934570312 197.908203125 l 5
 200.297851562 197.908203125 l 5
 200.297851562 284.345703125 l 5
 94.267578125 284.345703125 l 5
 94.267578125 476.8125 l 5
 3.2197265625 476.8125 l 5
 4.3720703125 570.165039062 l 5
 293.650390625 570.165039062 l 5
 293.650390625 287.802734375 l 5
 482.66015625 287.802734375 l 5
 482.66015625 570.165039062 l 5
 678.584960938 570.165039062 l 5
 678.584960938 190.993164062 l 5
EndSplineSet
Fore
SplineSet
679 453 m 7
 679 331 635 -4 308 -4 c 7
 112 -4 31 115 31 163 c 7
 31 204 67 205 93 205 c 7
 157 205 184 106 288 106 c 7
 360 106 425 128 425 169 c 7
 425 193 380 199 324 199 c 7
 226 199 95 258 95 449 c 7
 95 515 10 533 10 553 c 7
 10 575 37 575 59 575 c 7
 133 575 203 575 203 575 c 6
 269 575 284 531 284 453 c 7
 284 322 328 275 389 275 c 7
 452 275 489 322 489 457 c 7
 489 539 519 577 606 577 c 7
 674 577 679 550 679 453 c 7
EndSplineSet
Validated: 1
EndChar

StartChar: z
Encoding: 122 122 52
Width: 680
VWidth: 0
Flags: HW
LayerCount: 3
Back
SplineSet
676.129882812 200.340820312 m 5
 574.224609375 200.340820312 l 5
 574.224609375 98.435546875 l 5
 9.740234375 95 l 5
 8.5947265625 200.340820312 l 5
 97.9052734375 201.485351562 l 5
 97.9052734375 286.215820312 l 5
 9.740234375 286.215820312 l 5
 9.740234375 389.265625 l 5
 290.264648438 389.265625 l 5
 290.264648438 473.995117188 l 5
 5.16015625 473.995117188 l 5
 6.3046875 573.610351562 l 5
 574.224609375 573.610351562 l 5
 574.224609375 473.995117188 l 5
 484.915039062 473.995117188 l 5
 484.915039062 391.555664062 l 5
 574.224609375 391.555664062 l 5
 574.224609375 286.215820312 l 5
 293.700195312 286.215820312 l 5
 293.700195312 200.340820312 l 5
 574.224609375 200.340820312 l 5
 574.224609375 286.215820312 l 5
 676.129882812 286.215820312 l 5
 676.129882812 200.340820312 l 5
EndSplineSet
Fore
SplineSet
78 455 m 7
 53 455 40 484 40 504 c 7
 40 566 198 583 367 583 c 7
 462 583 575 569 575 501 c 7
 575 473 522 431 421 380 c 5
 442 380 519 381 550 381 c 7
 570 381 577 375 577 368 c 7
 577 349 533 296 522 295 c 6
 321 295 l 5
 267 252 259 245 259 218 c 7
 259 190 330 184 347 184 c 7
 488 184 561 275 629 275 c 7
 662 275 675 261 675 244 c 7
 675 170 509 92 297 92 c 7
 188 92 4 93 4 166 c 7
 4 206 57 235 121 294 c 5
 78 294 68 294 44 294 c 28
 43 294 l 7
 22 294 13 302 13 312 c 4
 13 332 45 381 69 382 c 4
 110 383 168 383 228 383 c 5
 281 409 343 441 343 456 c 7
 343 471 334 476 297 476 c 7
 191 476 186 455 78 455 c 7
EndSplineSet
Validated: 1
EndChar

StartChar: zero
Encoding: 48 48 53
Width: 617
Flags: HW
LayerCount: 3
Back
SplineSet
669.5 187.5 m 5
 575.200195312 187.5 l 5
 575.200195312 93.19921875 l 5
 103.700195312 93.19921875 l 5
 103.700195312 187.5 l 5
 1.3505859375 186.349609375 l 5
 1.3505859375 659 l 5
 99.1005859375 659 l 5
 100.25 762.5 l 5
 575.200195312 762.5 l 5
 575.200195312 659 l 5
 667.200195312 659 l 5
 669.5 187.5 l 5
476.299804688 569.299804688 m 5
 382 569.299804688 l 5
 382 659 l 5
 193.400390625 659 l 5
 193.400390625 286.399414062 l 5
 296.900390625 286.399414062 l 5
 296.900390625 189.799804688 l 5
 475.150390625 187.5 l 5
 476.299804688 569.299804688 l 5
EndSplineSet
Fore
SplineSet
339 176 m 3
 438 176 456 274 456 390 c 3
 456 534 407 684 296 684 c 3
 206 684 169 625 169 509 c 3
 169 362 223 176 339 176 c 3
609 426 m 3
 609 148 490 88 326 88 c 7
 153 88 6 158 6 442 c 3
 6 694 157 766 318 766 c 3
 472 766 609 706 609 426 c 3
EndSplineSet
Validated: 1
EndChar

StartChar: one
Encoding: 49 49 54
Width: 303
VWidth: 0
Flags: HW
LayerCount: 3
Back
SplineSet
4.859375 763.008789062 m 5
 291 763.008789062 l 5
 291 98.388671875 l 5
 93.779296875 98.388671875 l 5
 93.779296875 571.48828125 l 5
 4.859375 571.48828125 l 5
 4.859375 763.008789062 l 5
EndSplineSet
Fore
SplineSet
5 629 m 3
 5 698 62 765 186 765 c 3
 272 765 291 754 291 694 c 3
 291 500 292 381 292 187 c 27
 292 131 241 90 185 90 c 27
 140 90 95 119 95 164 c 3
 95 553 94 571 72 571 c 3
 37 571 5 583 5 629 c 3
EndSplineSet
Validated: 1
EndChar

StartChar: two
Encoding: 50 50 55
Width: 676
Flags: HW
LayerCount: 3
Back
SplineSet
670.887695312 663.340820312 m 5
 670.887695312 570.06640625 l 5
 569.650390625 570.06640625 l 5
 570.787109375 480.204101562 l 5
 486.612304688 480.204101562 l 5
 486.612304688 377.829101562 l 5
 384.237304688 377.829101562 l 5
 384.237304688 285.69140625 l 5
 293.237304688 285.69140625 l 5
 293.237304688 193.553710938 l 5
 670.887695312 193.553710938 l 5
 670.887695312 99.1416015625 l 5
 6.587890625 94.5908203125 l 5
 6.587890625 189.00390625 l 5
 101 187.866210938 l 5
 101 285.69140625 l 5
 198.825195312 285.69140625 l 5
 198.825195312 377.829101562 l 5
 293.237304688 377.829101562 l 5
 293.237304688 480.204101562 l 5
 384.237304688 480.204101562 l 5
 384.237304688 574.616210938 l 5
 482.0625 574.616210938 l 5
 482.0625 661.06640625 l 5
 293.237304688 661.06640625 l 5
 293.237304688 570.06640625 l 5
 6.587890625 570.06640625 l 5
 6.587890625 661.06640625 l 5
 101 661.06640625 l 5
 101 763.44140625 l 5
 571.924804688 763.44140625 l 5
 571.924804688 664.478515625 l 5
 670.887695312 663.340820312 l 5
EndSplineSet
Fore
SplineSet
323 770 m 3
 538 770 633 709 633 615 c 3
 633 489 284 289 284 230 c 3
 284 196 299 195 621 195 c 3
 654 195 671 185 671 139 c 3
 671 104 643 95 621 95 c 3
 403 95 279 95 61 95 c 27
 34 95 5 108 5 135 c 3
 5 216 470 523 470 619 c 3
 470 654 432 674 380 674 c 3
 240 674 319 560 71 560 c 3
 45 560 5 580 5 604 c 3
 5 649 99 770 323 770 c 3
EndSplineSet
Validated: 1
EndChar

StartChar: three
Encoding: 51 51 56
Width: 578
VWidth: 0
Flags: HW
LayerCount: 3
Back
SplineSet
9.1904296875 763.4296875 m 5
 581 762.374023438 l 5
 581 660.0390625 l 5
 486.049804688 660.0390625 l 5
 486.049804688 568.254882812 l 5
 388.990234375 568.254882812 l 5
 388.990234375 474.359375 l 5
 489.21484375 474.359375 l 5
 489.21484375 381.51953125 l 5
 574.669921875 381.51953125 l 5
 574.669921875 197.94921875 l 5
 489.21484375 197.94921875 l 5
 489.21484375 96.669921875 l 5
 99.919921875 96.669921875 l 5
 99.919921875 191.619140625 l 5
 9.1904296875 191.619140625 l 5
 9.1904296875 288.6796875 l 5
 200.14453125 288.6796875 l 5
 200.14453125 194.784179688 l 5
 382.66015625 194.784179688 l 5
 382.66015625 377.299804688 l 5
 295.094726562 377.299804688 l 5
 295.094726562 471.194335938 l 5
 200.14453125 471.194335938 l 5
 200.14453125 571.419921875 l 5
 291.9296875 571.419921875 l 5
 291.9296875 660.0390625 l 5
 9.1904296875 660.0390625 l 5
 9.1904296875 763.4296875 l 5
EndSplineSet
Fore
SplineSet
7 713 m 27
 7 742 34 763 63 763 c 27
 243 763 339 762 519 762 c 3
 555 762 574 742 574 714 c 3
 574 635 380 566 380 521 c 3
 380 470 570 409 570 291 c 3
 570 162 484 92 301 92 c 3
 175 92 7 195 7 233 c 3
 7 288 50 294 94 294 c 3
 201 294 212 201 295 201 c 3
 357 201 398 213 398 277 c 3
 398 399 196 447 196 516 c 3
 196 582 296 559 296 613 c 27
 296 640 279 658 252 658 c 27
 177 658 136 659 61 659 c 27
 31 659 7 683 7 713 c 27
EndSplineSet
Validated: 1
EndChar

StartChar: four
Encoding: 52 52 57
Width: 683
Flags: HW
LayerCount: 3
Back
SplineSet
674.6796875 185.115234375 m 5
 583.040039062 185.115234375 l 5
 583.040039062 94.6357421875 l 5
 392.799804688 94.6357421875 l 5
 392.799804688 180.475585938 l 5
 3.0400390625 180.475585938 l 5
 3.0400390625 375.35546875 l 5
 98.16015625 375.35546875 l 5
 98.16015625 482.075195312 l 5
 195.599609375 482.075195312 l 5
 195.599609375 572.555664062 l 5
 298.83984375 572.555664062 l 5
 298.83984375 660.715820312 l 5
 385.83984375 660.715820312 l 5
 387 762.795898438 l 5
 586.520507812 761.635742188 l 5
 586.520507812 284.875 l 5
 673.520507812 284.875 l 5
 674.6796875 185.115234375 l 5
390.48046875 282.555664062 m 5
 390.48046875 478.595703125 l 5
 298.83984375 478.595703125 l 5
 298.83984375 378.8359375 l 5
 194.440429688 378.8359375 l 5
 194.440429688 282.555664062 l 5
 390.48046875 282.555664062 l 5
EndSplineSet
Fore
SplineSet
191 326 m 3
 191 294 214 282 239 282 c 3
 300 282 334 282 395 282 c 27
 405 282 412 292 412 302 c 3
 412 362 412 436 412 496 c 3
 412 517 407 538 379 538 c 3
 334 538 191 352 191 326 c 3
12 238 m 3
 12 400 400 762 484 762 c 3
 506 762 485 761 512 761 c 3
 543 761 574 738 574 688 c 3
 574 527 573 475 573 314 c 27
 573 299 584 284 599 284 c 3
 640 284 661 261 661 229 c 27
 661 197 652 185 594 185 c 3
 580 185 569 172 569 158 c 3
 569 142 569 144 569 128 c 3
 569 104 518 82 467 82 c 3
 453 82 411 101 411 136 c 7
 411 150 411 141 411 155 c 7
 411 170 402 181 387 181 c 31
 257 181 217 181 87 181 c 3
 23 181 12 236 12 238 c 3
EndSplineSet
Validated: 1
EndChar

StartChar: five
Encoding: 53 53 58
Width: 588
VWidth: 0
Flags: HW
LayerCount: 3
Back
SplineSet
578.5546875 188.5546875 m 5
 484.049804688 187.40234375 l 5
 484.049804688 95.2021484375 l 5
 95.6572265625 95.2021484375 l 5
 95.6572265625 192.012695312 l 5
 2.3046875 190.860351562 l 5
 2.3046875 286.517578125 l 5
 194.772460938 287.669921875 l 5
 194.772460938 188.5546875 l 5
 383.782226562 189.70703125 l 5
 383.782226562 481.290039062 l 5
 -1.15234375 481.290039062 l 5
 0 763.65234375 l 5
 573.944335938 763.65234375 l 5
 573.944335938 658.775390625 l 5
 201.6875 657.622070312 l 5
 200.53515625 573.490234375 l 5
 484.049804688 572.337890625 l 5
 482.897460938 483.594726562 l 5
 577.40234375 483.594726562 l 5
 578.5546875 188.5546875 l 5
EndSplineSet
Fore
SplineSet
553 713 m 27
 553 684 529 660 500 660 c 27
 390 660 339 660 229 660 c 3
 180 660 175 650 175 617 c 3
 175 586 176 571 226 571 c 3
 269 571 320 571 363 571 c 3
 497 571 583 488 583 316 c 3
 583 172 451 89 288 89 c 3
 91 89 1 200 1 239 c 3
 1 279 13 318 68 318 c 3
 190 318 161 204 300 204 c 3
 394 204 427 274 427 336 c 3
 427 396 382 480 322 480 c 3
 211 480 251 481 140 481 c 3
 22 481 0 504 0 640 c 3
 0 728 18 763 131 763 c 3
 216 763 419 764 503 764 c 3
 531 764 553 741 553 713 c 27
EndSplineSet
Validated: 1
EndChar

StartChar: six
Encoding: 54 54 59
Width: 672
VWidth: 0
Flags: HW
LayerCount: 3
Back
SplineSet
676.299804688 194.17578125 m 5
 579.700195312 194.17578125 l 5
 579.700195312 96.42578125 l 5
 95.5498046875 96.42578125 l 5
 95.5498046875 189.575195312 l 5
 1.25 189.575195312 l 5
 1.25 659.92578125 l 5
 99 661.075195312 l 5
 99 763.42578125 l 5
 576.25 763.42578125 l 5
 577.400390625 659.92578125 l 5
 672.850585938 661.075195312 l 5
 674 570.225585938 l 5
 479.650390625 566.775390625 l 5
 479.650390625 663.375 l 5
 192.150390625 663.375 l 5
 192.150390625 481.67578125 l 5
 579.700195312 481.67578125 l 5
 579.700195312 378.17578125 l 5
 676.299804688 378.17578125 l 5
 676.299804688 194.17578125 l 5
477.350585938 193.025390625 m 5
 477.350585938 288.475585938 l 5
 384.200195312 288.475585938 l 5
 384.200195312 377.025390625 l 5
 195.600585938 378.17578125 l 5
 194.450195312 290.775390625 l 5
 296.799804688 291.92578125 l 5
 296.799804688 191.875 l 5
 477.350585938 193.025390625 l 5
EndSplineSet
Fore
SplineSet
187 323 m 3
 187 242 283 171 364 171 c 3
 438 171 492 201 492 257 c 3
 492 344 383 401 285 401 c 3
 218 401 187 369 187 323 c 3
339 771 m 3
 560 771 624 666 624 619 c 3
 624 577 574 561 532 561 c 3
 440 561 486 657 337 657 c 3
 269 657 185 613 185 545 c 3
 185 484 206 476 237 476 c 3
 283 476 327 476 387 476 c 3
 566 476 668 385 668 284 c 3
 668 166 527 90 333 90 c 3
 80 90 0 235 0 447 c 3
 0 698 205 771 339 771 c 3
EndSplineSet
Validated: 1
EndChar

StartChar: seven
Encoding: 55 55 60
Width: 580
Flags: HW
LayerCount: 3
Back
SplineSet
572.700195312 570.463867188 m 5
 480.700195312 570.463867188 l 5
 481.849609375 481.9140625 l 5
 385.25 481.9140625 l 5
 384.099609375 381.864257812 l 5
 288.650390625 381.864257812 l 5
 287.5 96.6640625 l 5
 92 96.6640625 l 5
 90.849609375 381.864257812 l 5
 192.049804688 381.864257812 l 5
 192.049804688 484.213867188 l 5
 285.200195312 484.213867188 l 5
 285.200195312 571.614257812 l 5
 378.349609375 570.463867188 l 5
 378.349609375 659.013671875 l 5
 0 660.1640625 l 5
 0 763.6640625 l 5
 573.849609375 763.6640625 l 5
 572.700195312 570.463867188 l 5
EndSplineSet
Fore
SplineSet
-9 692 m 3
 -9 720 22 762 51 762 c 24
 218 762 296 763 463 763 c 3
 528 763 576 739 576 669 c 3
 576 514 292 424 292 313 c 3
 292 224 292 229 292 140 c 3
 292 103 242 92 205 92 c 27
 151 92 95 124 95 178 c 3
 95 235 95 239 95 296 c 3
 95 434 366 541 366 599 c 3
 366 629 364 651 298 651 c 3
 256 651 187 651 76 651 c 3
 47 651 -9 663 -9 692 c 3
EndSplineSet
Validated: 1
EndChar

StartChar: eight
Encoding: 56 56 61
Width: 676
VWidth: 0
Flags: HW
LayerCount: 3
Back
SplineSet
671.354492188 188.934570312 m 5
 578.609375 190.080078125 l 5
 578.609375 97.3349609375 l 5
 100 97.3349609375 l 5
 98.8544921875 191.224609375 l 5
 2.6748046875 190.080078125 l 5
 2.6748046875 381.294921875 l 5
 100 381.294921875 l 5
 100 483.200195312 l 5
 2.6748046875 483.200195312 l 5
 2.6748046875 660.674804688 l 5
 100 661.819335938 l 5
 100 761.434570312 l 5
 575.174804688 763.724609375 l 5
 576.319335938 661.819335938 l 5
 667.919921875 660.674804688 l 5
 669.064453125 480.91015625 l 5
 578.609375 480.91015625 l 5
 578.609375 377.859375 l 5
 671.354492188 377.859375 l 5
 671.354492188 188.934570312 l 5
480.139648438 483.200195312 m 5
 478.995117188 572.509765625 l 5
 381.669921875 573.655273438 l 5
 380.524414062 661.819335938 l 5
 191.599609375 661.819335938 l 5
 192.745117188 573.655273438 l 5
 296.939453125 573.655273438 l 5
 298.084960938 483.200195312 l 5
 480.139648438 483.200195312 l 5
472.125 190.080078125 m 5
 472.125 281.6796875 l 5
 380.524414062 281.6796875 l 5
 380.524414062 375.569335938 l 5
 197.32421875 375.569335938 l 5
 197.32421875 293.129882812 l 5
 300.375 291.984375 l 5
 300.375 190.080078125 l 5
 472.125 190.080078125 l 5
EndSplineSet
Fore
SplineSet
327 773 m 3
 495 773 637 712 637 571 c 3
 637 491 550 449 550 429 c 3
 550 406 671 365 671 281 c 3
 671 135 499 89 345 89 c 3
 169 89 0 131 0 285 c 3
 0 370 123 403 123 429 c 3
 123 456 27 494 27 571 c 3
 27 715 175 773 327 773 c 3
185 316 m 3
 185 233 287 171 367 171 c 3
 441 171 493 197 493 253 c 3
 493 324 391 389 275 389 c 3
 232 389 185 362 185 316 c 3
188 600 m 3
 188 519 306 463 393 463 c 3
 449 463 492 487 492 543 c 3
 492 630 384 678 286 678 c 3
 219 678 188 646 188 600 c 3
EndSplineSet
Validated: 1
EndChar

StartChar: nine
Encoding: 57 57 62
Width: 666
Flags: HW
LayerCount: 3
Back
SplineSet
675.127929688 285.887695312 m 5
 579.469726562 287.040039062 l 5
 581.775390625 186.772460938 l 5
 480.35546875 186.772460938 l 5
 481.5078125 92.267578125 l 5
 388.155273438 92.267578125 l 5
 388.155273438 0.0673828125 l 5
 194.53515625 1.2197265625 l 5
 194.53515625 98.0302734375 l 5
 291.344726562 95.724609375 l 5
 292.497070312 190.23046875 l 5
 385.849609375 189.077148438 l 5
 384.697265625 285.887695312 l 5
 98.8779296875 287.040039062 l 5
 98.8779296875 375.782226562 l 5
 0.9150390625 372.325195312 l 5
 0.9150390625 661.602539062 l 5
 98.8779296875 661.602539062 l 5
 98.8779296875 761.870117188 l 5
 580.622070312 761.870117188 l 5
 580.622070312 665.059570312 l 5
 673.974609375 663.907226562 l 5
 675.127929688 285.887695312 l 5
478.049804688 379.240234375 m 5
 478.049804688 568.25 l 5
 384.697265625 568.25 l 5
 384.697265625 655.83984375 l 5
 194.53515625 654.6875 l 5
 195.6875 481.8125 l 5
 297.107421875 481.8125 l 5
 297.107421875 378.087890625 l 5
 478.049804688 379.240234375 l 5
EndSplineSet
Fore
SplineSet
7 522 m 3
 7 706 154 769 341 769 c 3
 576 769 662 647 662 476 c 3
 662 287 387 0 291 0 c 3
 203 0 188 25 188 46 c 3
 188 120 377 175 377 244 c 3
 377 290 7 237 7 522 c 3
177 571 m 3
 177 469 258 373 368 373 c 3
 449 373 489 409 489 490 c 3
 489 606 381 674 283 674 c 3
 216 674 177 637 177 571 c 3
EndSplineSet
Validated: 1
EndChar

StartChar: colon
Encoding: 58 58 63
Width: 298
VWidth: 0
Flags: HW
LayerCount: 3
Back
SplineSet
286.280273438 484.3203125 m 5
 2.080078125 484.3203125 l 5
 2.080078125 664.120117188 l 5
 286.280273438 664.120117188 l 5
 286.280273438 484.3203125 l 5
286.280273438 96.8798828125 m 5
 2.080078125 96.8798828125 l 5
 2.080078125 287.120117188 l 5
 286.280273438 287.120117188 l 5
 286.280273438 96.8798828125 l 5
EndSplineSet
Fore
SplineSet
0 565 m 31
 0 629 54 667 137 667 c 7
 217 667 287 641 287 565 c 7
 287 498 229 464 140 464 c 7
 50 464 0 501 0 565 c 31
1 197 m 27
 1 261 55 299 138 299 c 3
 218 299 288 273 288 197 c 3
 288 130 230 96 141 96 c 3
 51 96 1 133 1 197 c 27
EndSplineSet
Validated: 1
EndChar

StartChar: semicolon
Encoding: 59 59 64
Width: 313
VWidth: 0
Flags: HW
LayerCount: 3
Back
SplineSet
292.009765625 489.990234375 m 5
 113 489.990234375 l 5
 113 669 l 5
 292.009765625 669 l 5
 292.009765625 489.990234375 l 5
295.520507812 193.98046875 m 5
 200.75 193.98046875 l 5
 200.75 99.2099609375 l 5
 8.8701171875 99.2099609375 l 5
 8.8701171875 191.640625 l 5
 113 191.640625 l 5
 113 382.350585938 l 5
 295.520507812 382.350585938 l 5
 295.520507812 193.98046875 l 5
EndSplineSet
Fore
SplineSet
205 390 m 3
 287 390 300 363 300 290 c 3
 300 180 199 94 89 94 c 27
 51 94 3 103 3 141 c 27
 3 173 38 190 70 190 c 3
 89 190 111 229 111 248 c 3
 111 358 131 390 205 390 c 3
105 587 m 31
 105 641 148 680 202 680 c 31
 256 680 302 638 302 584 c 31
 302 530 258 485 204 485 c 31
 146 485 105 529 105 587 c 31
EndSplineSet
Validated: 1
EndChar

StartChar: less
Encoding: 60 60 65
Width: 486
VWidth: 0
Flags: HW
LayerCount: 3
Back
SplineSet
479.830078125 96.2900390625 m 5
 290 96.2900390625 l 5
 290 187.732421875 l 5
 196.2421875 187.732421875 l 5
 196.2421875 289.592773438 l 5
 96.697265625 289.592773438 l 5
 96.697265625 379.877929688 l 5
 0.625 379.877929688 l 5
 0.625 480.580078125 l 5
 96.697265625 480.580078125 l 5
 96.697265625 569.708007812 l 5
 197.399414062 569.708007812 l 5
 197.399414062 662.307617188 l 5
 290 662.307617188 l 5
 290 763.010742188 l 5
 479.830078125 763.010742188 l 5
 479.830078125 664.623046875 l 5
 380.28515625 663.46484375 l 5
 380.28515625 573.180664062 l 5
 286.52734375 573.180664062 l 5
 286.52734375 482.895507812 l 5
 196.2421875 482.895507812 l 5
 196.2421875 376.405273438 l 5
 286.52734375 376.405273438 l 5
 286.52734375 286.120117188 l 5
 380.28515625 286.120117188 l 5
 380.28515625 186.575195312 l 5
 479.830078125 186.575195312 l 5
 479.830078125 96.2900390625 l 5
EndSplineSet
Fore
SplineSet
0 429 m 7
 0 492 295 763 376 763 c 7
 449 763 479 760 479 718 c 7
 479 675 188 513 188 428 c 7
 188 347 480 193 480 138 c 7
 480 95 452 95 375 95 c 7
 322 95 0 370 0 429 c 7
EndSplineSet
Validated: 1
EndChar

StartChar: greater
Encoding: 62 62 66
Width: 486
VWidth: 0
Flags: HW
LayerCount: 3
Back
SplineSet
0.759765625 95.0732421875 m 5
 191 95.0732421875 l 5
 191 186.712890625 l 5
 284.959960938 186.712890625 l 5
 284.959960938 288.79296875 l 5
 384.719726562 288.79296875 l 5
 384.719726562 379.2734375 l 5
 481 379.2734375 l 5
 481 480.193359375 l 5
 384.719726562 480.193359375 l 5
 384.719726562 569.512695312 l 5
 283.799804688 569.512695312 l 5
 283.799804688 662.313476562 l 5
 191 662.313476562 l 5
 191 763.233398438 l 5
 0.759765625 763.233398438 l 5
 0.759765625 664.6328125 l 5
 100.51953125 663.47265625 l 5
 100.51953125 572.993164062 l 5
 194.479492188 572.993164062 l 5
 194.479492188 482.512695312 l 5
 284.959960938 482.512695312 l 5
 284.959960938 375.79296875 l 5
 194.479492188 375.79296875 l 5
 194.479492188 285.313476562 l 5
 100.51953125 285.313476562 l 5
 100.51953125 185.552734375 l 5
 0.759765625 185.552734375 l 5
 0.759765625 95.0732421875 l 5
EndSplineSet
Fore
SplineSet
481 429 m 3
 481 370 159 95 106 95 c 3
 29 95 1 95 1 138 c 3
 1 193 293 347 293 428 c 3
 293 513 2 675 2 718 c 3
 2 760 32 763 105 763 c 3
 186 763 481 492 481 429 c 3
EndSplineSet
Validated: 1
EndChar

StartChar: equal
Encoding: 61 61 67
Width: 546
VWidth: 0
Flags: HW
LayerCount: 3
Back
SplineSet
576.276367188 478.02734375 m 1
 5 478.02734375 l 1
 5 571 l 1
 576.276367188 571 l 1
 576.276367188 478.02734375 l 1
587.978515625 181.811523438 m 1
 5 181.811523438 l 1
 5 279.109375 l 1
 587.978515625 279.109375 l 1
 587.978515625 181.811523438 l 1
EndSplineSet
Fore
SplineSet
6 214 m 3
 6 238 37 281 61 281 c 3
 249 281 321 281 509 281 c 27
 525 281 540 266 540 250 c 27
 540 214 513 178 477 178 c 27
 289 178 217 178 29 178 c 3
 12 178 6 196 6 214 c 3
5 504 m 3
 5 528 36 571 60 571 c 3
 248 571 320 571 508 571 c 27
 524 571 539 556 539 540 c 27
 539 504 512 468 476 468 c 27
 288 468 216 468 28 468 c 3
 11 468 5 486 5 504 c 3
EndSplineSet
Validated: 1
EndChar

StartChar: question
Encoding: 63 63 68
Width: 587
VWidth: 0
Flags: HW
LayerCount: 3
Back
SplineSet
579.700195312 480.150390625 m 5
 486.549804688 480.150390625 l 5
 486.549804688 381.25 l 5
 387.650390625 381.25 l 5
 387.650390625 291.549804688 l 5
 208.25 291.549804688 l 5
 208.25 377.799804688 l 5
 297.950195312 377.799804688 l 5
 297.950195312 477.849609375 l 5
 389.950195312 477.849609375 l 5
 389.950195312 663 l 5
 204.799804688 663 l 5
 204.799804688 480.150390625 l 5
 12.75 480.150390625 l 5
 12.75 659.549804688 l 5
 105.900390625 659.549804688 l 5
 104.75 763.049804688 l 5
 486.549804688 761.900390625 l 5
 486.549804688 659.549804688 l 5
 579.700195312 659.549804688 l 5
 579.700195312 480.150390625 l 5
387.650390625 96.0498046875 m 5
 208.25 96.0498046875 l 5
 208.25 185.75 l 5
 387.650390625 185.75 l 5
 387.650390625 96.0498046875 l 5
EndSplineSet
Fore
SplineSet
204 141 m 27
 204 174 240 193 295 193 c 3
 348 193 395 180 395 141 c 3
 395 106 356 89 297 89 c 3
 237 89 204 108 204 141 c 27
197 322 m 3
 197 419 395 436 395 558 c 3
 395 617 376 659 308 659 c 3
 222 659 196 640 196 613 c 3
 196 574 214 565 214 532 c 3
 214 473 163 441 111 441 c 3
 58 441 3 474 3 538 c 3
 3 686 140 769 328 769 c 3
 428 769 581 725 581 571 c 3
 581 453 373 276 280 276 c 3
 235 276 197 290 197 322 c 3
EndSplineSet
Validated: 1
EndChar

StartChar: hyphen
Encoding: 45 45 69
Width: 543
VWidth: 0
Flags: HW
LayerCount: 3
Back
SplineSet
503.272460938 385.1953125 m 5
 -0.8203125 385.1953125 l 5
 -0.8203125 475.022460938 l 5
 503.272460938 475.022460938 l 5
 503.272460938 385.1953125 l 5
EndSplineSet
Fore
SplineSet
3 414 m 7
 3 438 34 481 58 481 c 7
 246 481 318 481 506 481 c 31
 522 481 537 466 537 450 c 31
 537 414 510 378 474 378 c 31
 286 378 214 378 26 378 c 7
 9 378 3 396 3 414 c 7
EndSplineSet
Validated: 1
EndChar

StartChar: comma
Encoding: 44 44 70
Width: 318
Flags: HW
LayerCount: 3
Back
SplineSet
309.110351562 98.85546875 m 1
 208.467773438 98.85546875 l 1
 208.467773438 1.9404296875 l 1
 4.697265625 1.9404296875 l 1
 4.697265625 95.1279296875 l 1
 115.280273438 95.1279296875 l 1
 115.280273438 302.625 l 1
 307.8671875 302.625 l 1
 309.110351562 98.85546875 l 1
EndSplineSet
Fore
SplineSet
209 298 m 7
 291 298 304 271 304 198 c 7
 304 88 203 2 93 2 c 31
 55 2 7 11 7 49 c 31
 7 81 42 98 74 98 c 7
 93 98 115 137 115 156 c 7
 115 266 135 298 209 298 c 7
EndSplineSet
Validated: 1
EndChar

StartChar: period
Encoding: 46 46 71
Width: 216
VWidth: 0
Flags: HW
LayerCount: 3
Back
SplineSet
195 95 m 5
 19.3056640625 95 l 5
 19.3056640625 279.705078125 l 5
 195 279.705078125 l 5
 195 95 l 5
EndSplineSet
Fore
SplineSet
10 192 m 31
 10 246 53 285 107 285 c 31
 161 285 207 243 207 189 c 31
 207 135 163 90 109 90 c 31
 51 90 10 134 10 192 c 31
EndSplineSet
Validated: 1
EndChar

StartChar: slash
Encoding: 47 47 72
Width: 690
Flags: HW
LayerCount: 3
Back
SplineSet
679.349609375 661 m 5
 580.450195312 662.150390625 l 5
 580.450195312 572.450195312 l 5
 485 572.450195312 l 5
 485 482.75 l 5
 389.549804688 482.75 l 5
 389.549804688 380.400390625 l 5
 302.150390625 380.400390625 l 5
 302.150390625 290.700195312 l 5
 200.950195312 290.700195312 l 5
 200.950195312 188.349609375 l 5
 103.200195312 189.5 l 5
 103.200195312 94.0498046875 l 5
 8.900390625 95.2001953125 l 5
 7.75 287.25 l 5
 103.200195312 287.25 l 5
 104.349609375 376.950195312 l 5
 203.25 376.950195312 l 5
 203.25 480.450195312 l 5
 298.700195312 480.450195312 l 5
 298.700195312 569 l 5
 386.099609375 569 l 5
 386.099609375 662.150390625 l 5
 488.450195312 662.150390625 l 5
 488.450195312 761.049804688 l 5
 679.349609375 761.049804688 l 5
 679.349609375 661 l 5
EndSplineSet
Fore
SplineSet
583 781 m 7
 645 781 685 752 685 698 c 7
 685 671 133 74 102 74 c 7
 29 74 4 105 4 153 c 7
 4 212 554 781 583 781 c 7
EndSplineSet
Validated: 1
EndChar

StartChar: backslash
Encoding: 92 92 73
Width: 690
Flags: HW
LayerCount: 3
Back
SplineSet
-5.349609375 663 m 5
 93.5498046875 664.150390625 l 5
 93.5498046875 574.450195312 l 5
 189 574.450195312 l 5
 189 484.75 l 5
 284.450195312 484.75 l 5
 284.450195312 382.400390625 l 5
 371.849609375 382.400390625 l 5
 371.849609375 292.700195312 l 5
 473.049804688 292.700195312 l 5
 473.049804688 190.349609375 l 5
 570.799804688 191.5 l 5
 570.799804688 96.0498046875 l 5
 665.099609375 97.2001953125 l 5
 666.25 289.25 l 5
 570.799804688 289.25 l 5
 569.650390625 378.950195312 l 5
 470.75 378.950195312 l 5
 470.75 482.450195312 l 5
 375.299804688 482.450195312 l 5
 375.299804688 571 l 5
 287.900390625 571 l 5
 287.900390625 664.150390625 l 5
 185.549804688 664.150390625 l 5
 185.549804688 763.049804688 l 5
 -5.349609375 763.049804688 l 5
 -5.349609375 663 l 5
EndSplineSet
Fore
SplineSet
106 779 m 7
 135 779 685 210 685 151 c 7
 685 103 660 72 587 72 c 7
 556 72 4 669 4 696 c 7
 4 750 44 779 106 779 c 7
EndSplineSet
Validated: 1
EndChar

StartChar: bracketleft
Encoding: 91 91 74
Width: 402
Flags: HW
LayerCount: 3
Back
SplineSet
386.60546875 662.875 m 1
 187.389648438 662.875 l 1
 186.224609375 88.5302734375 l 1
 384.275390625 88.5302734375 l 1
 384.275390625 1.1552734375 l 1
 2.1552734375 1.1552734375 l 1
 3.3203125 763.065429688 l 1
 386.60546875 763.065429688 l 1
 386.60546875 662.875 l 1
EndSplineSet
Fore
SplineSet
5 714 m 27
 5 740 23 764 50 764 c 24
 164 764 232 763 346 763 c 3
 376 763 394 739 394 712 c 27
 394 685 377 662 345 662 c 3
 302 662 275 662 232 662 c 27
 210 662 193 644 193 622 c 27
 193 428 190 325 190 131 c 27
 190 113 207 102 225 102 c 27
 275 102 302 102 352 102 c 3
 379 102 394 76 394 50 c 3
 394 24 379 0 353 0 c 3
 233 0 165 0 45 0 c 27
 22 0 5 19 5 42 c 27
 5 304 5 452 5 714 c 27
EndSplineSet
Validated: 1
EndChar

StartChar: bracketright
Encoding: 93 93 75
Width: 402
Flags: HW
LayerCount: 3
Back
SplineSet
-0.28515625 663.595703125 m 1
 198.930664062 663.595703125 l 1
 200.095703125 89.2509765625 l 1
 2.044921875 89.2509765625 l 1
 2.044921875 1.8759765625 l 1
 384.165039062 1.8759765625 l 1
 383 763.786132812 l 1
 -0.28515625 763.786132812 l 1
 -0.28515625 663.595703125 l 1
EndSplineSet
Fore
SplineSet
393 714 m 27
 393 452 393 304 393 42 c 27
 393 19 376 0 353 0 c 27
 233 0 165 0 45 0 c 3
 19 0 4 24 4 50 c 3
 4 76 19 102 46 102 c 3
 96 102 123 102 173 102 c 27
 191 102 208 113 208 131 c 27
 208 325 205 428 205 622 c 27
 205 644 188 662 166 662 c 27
 123 662 96 662 53 662 c 3
 21 662 4 685 4 712 c 27
 4 739 22 763 52 763 c 3
 166 763 234 764 348 764 c 24
 375 764 393 740 393 714 c 27
EndSplineSet
Validated: 1
EndChar

StartChar: asciicircum
Encoding: 94 94 76
Width: 638
Flags: HW
LayerCount: 3
Back
SplineSet
651.327148438 383.6015625 m 5
 461.067382812 383.6015625 l 5
 461.067382812 485.52734375 l 5
 372.732421875 485.52734375 l 5
 371.599609375 572.729492188 l 5
 284.397460938 572.729492188 l 5
 285.530273438 485.52734375 l 5
 180.20703125 485.52734375 l 5
 181.33984375 380.204101562 l 5
 -7.7880859375 381.336914062 l 5
 -7.7880859375 485.52734375 l 5
 85.0771484375 485.52734375 l 5
 85.0771484375 576.126953125 l 5
 180.20703125 577.259765625 l 5
 181.33984375 664.461914062 l 5
 281 663.329101562 l 5
 281 762.989257812 l 5
 365.9375 762.989257812 l 5
 367.069335938 667.859375 l 5
 461.067382812 666.7265625 l 5
 461.067382812 572.729492188 l 5
 555.064453125 573.862304688 l 5
 556.197265625 485.52734375 l 5
 650.194335938 485.52734375 l 5
 651.327148438 383.6015625 l 5
EndSplineSet
Fore
SplineSet
6 436 m 3
 6 496 278 763 325 763 c 3
 372 763 631 499 631 435 c 3
 631 395 602 383 567 383 c 3
 458 383 381 577 328 577 c 3
 280 577 174 379 75 379 c 3
 38 379 6 399 6 436 c 3
EndSplineSet
Validated: 1
EndChar

StartChar: underscore
Encoding: 95 95 77
Width: 780
Flags: HW
LayerCount: 3
Back
SplineSet
807.120117188 1.6796875 m 5
 1.259765625 1.6796875 l 5
 1.259765625 96.0595703125 l 5
 807.120117188 96.0595703125 l 5
 807.120117188 1.6796875 l 5
EndSplineSet
Fore
SplineSet
3 38 m 7
 3 62 34 105 58 105 c 7
 246 105 556 105 744 105 c 31
 760 105 775 90 775 74 c 31
 775 38 748 2 712 2 c 31
 524 2 214 2 26 2 c 7
 9 2 3 20 3 38 c 7
EndSplineSet
Validated: 1
EndChar

StartChar: braceleft
Encoding: 123 123 78
Width: 378
VWidth: 0
Flags: HW
LayerCount: 3
Fore
SplineSet
175 385 m 7
 175 358 246 359 246 330 c 7
 246 298 214 295 214 250 c 7
 214 218 372 162 372 101 c 7
 372 28 330 1 268 1 c 7
 136 1 42 182 42 228 c 7
 42 302 89 288 89 308 c 7
 89 322 5 346 5 385 c 7
 5 424 89 448 89 462 c 7
 89 482 42 468 42 542 c 7
 42 588 136 769 268 769 c 7
 330 769 372 742 372 669 c 7
 372 608 214 552 214 520 c 7
 214 475 246 472 246 440 c 7
 246 411 175 412 175 385 c 7
EndSplineSet
Validated: 1
EndChar

StartChar: braceright
Encoding: 125 125 79
Width: 378
VWidth: 0
Flags: HW
LayerCount: 3
Fore
SplineSet
202 385 m 3
 202 412 131 411 131 440 c 3
 131 472 163 475 163 520 c 3
 163 552 5 608 5 669 c 3
 5 742 47 769 109 769 c 3
 241 769 335 588 335 542 c 3
 335 468 288 482 288 462 c 3
 288 448 372 424 372 385 c 3
 372 346 288 322 288 308 c 3
 288 288 335 302 335 228 c 3
 335 182 241 1 109 1 c 3
 47 1 5 28 5 101 c 3
 5 162 163 218 163 250 c 3
 163 295 131 298 131 330 c 3
 131 359 202 358 202 385 c 3
EndSplineSet
Validated: 1
EndChar

StartChar: parenleft
Encoding: 40 40 80
Width: 400
VWidth: 0
Flags: HW
LayerCount: 3
Back
SplineSet
391.575195312 0.2998046875 m 5
 196.275390625 1.462890625 l 5
 197.4375 93.2998046875 l 5
 99.787109375 93.2998046875 l 5
 99.787109375 185.137695312 l 5
 -0.1875 183.974609375 l 5
 -0.1875 568.762695312 l 5
 104.4375 567.599609375 l 5
 103.275390625 660.599609375 l 5
 193.950195312 661.762695312 l 5
 193.950195312 762.900390625 l 5
 390.412109375 762.900390625 l 5
 391.575195312 568.762695312 l 5
 290.4375 568.762695312 l 5
 290.4375 478.087890625 l 5
 197.4375 478.087890625 l 5
 196.275390625 283.950195312 l 5
 290.4375 282.787109375 l 5
 290.4375 183.974609375 l 5
 391.575195312 182.8125 l 5
 391.575195312 0.2998046875 l 5
EndSplineSet
Fore
SplineSet
193 385 m 7
 193 219 394 196 394 101 c 7
 394 28 352 1 290 1 c 7
 180 1 4 177 4 385 c 7
 4 593 180 769 290 769 c 7
 352 769 394 742 394 669 c 7
 394 574 193 551 193 385 c 7
EndSplineSet
Validated: 1
EndChar

StartChar: parenright
Encoding: 41 41 81
Width: 400
VWidth: 0
Flags: HW
LayerCount: 3
Back
SplineSet
2.4248046875 0.2998046875 m 5
 197.724609375 1.462890625 l 5
 196.5625 93.2998046875 l 5
 294.212890625 93.2998046875 l 5
 294.212890625 185.137695312 l 5
 394.1875 183.974609375 l 5
 394.1875 568.762695312 l 5
 289.5625 567.599609375 l 5
 290.724609375 660.599609375 l 5
 200.049804688 661.762695312 l 5
 200.049804688 762.900390625 l 5
 3.587890625 762.900390625 l 5
 2.4248046875 568.762695312 l 5
 103.5625 568.762695312 l 5
 103.5625 478.087890625 l 5
 196.5625 478.087890625 l 5
 197.724609375 283.950195312 l 5
 103.5625 282.787109375 l 5
 103.5625 183.974609375 l 5
 2.4248046875 182.8125 l 5
 2.4248046875 0.2998046875 l 5
EndSplineSet
Fore
SplineSet
205 382 m 7
 205 548 4 571 4 666 c 7
 4 739 46 766 108 766 c 7
 218 766 394 590 394 382 c 7
 394 174 218 -2 108 -2 c 7
 46 -2 4 25 4 98 c 7
 4 193 205 216 205 382 c 7
EndSplineSet
Validated: 1
EndChar

StartChar: plus
Encoding: 43 43 82
Width: 578
VWidth: 0
Flags: HW
LayerCount: 3
Back
SplineSet
573.294921875 382.0703125 m 5
 378.740234375 382.0703125 l 5
 378.740234375 191.010742188 l 5
 197 192.17578125 l 5
 197 382.0703125 l 5
 0.115234375 382.0703125 l 5
 -1.0498046875 483.42578125 l 5
 197 483.42578125 l 5
 197 664 l 5
 377.575195312 664 l 5
 378.740234375 485.755859375 l 5
 573.294921875 485.755859375 l 5
 573.294921875 385.565429688 l 5
 573.294921875 382.0703125 l 5
EndSplineSet
Fore
SplineSet
3 410 m 7
 3 434 34 483 58 483 c 6
 185 483 l 6
 201 483 201 484 201 501 c 6
 201 645 l 6
 201 661 227 676 255 676 c 7
 347 676 379 649 379 613 c 6
 379 502 l 6
 379 484 380 483 396 483 c 6
 538 483 l 6
 554 483 569 468 569 452 c 7
 569 416 542 374 506 374 c 6
 395 374 l 6
 380 374 379 372 379 355 c 6
 379 202 l 6
 379 185 348 179 317 179 c 7
 231 179 201 210 201 234 c 6
 201 357 l 6
 201 372 200 374 187 374 c 6
 26 374 l 6
 9 374 3 392 3 410 c 7
EndSplineSet
Validated: 1
EndChar

StartChar: quotesingle
Encoding: 39 39 83
Width: 164
Flags: HW
LayerCount: 3
Back
SplineSet
133.415039062 381.482421875 m 1
 34.9248046875 381.482421875 l 1
 34.9248046875 671.08984375 l 1
 133.415039062 671.08984375 l 1
 133.415039062 381.482421875 l 1
EndSplineSet
Fore
SplineSet
4 592 m 3
 4 654 37 674 75 674 c 3
 141 674 159 608 159 579 c 3
 159 533 106 364 58 364 c 3
 27 364 12 392 12 414 c 3
 12 446 35 463 35 517 c 3
 35 531 4 557 4 592 c 3
EndSplineSet
Validated: 1
EndChar

StartChar: asterisk
Encoding: 42 42 84
Width: 804
VWidth: 0
Flags: HW
LayerCount: 3
Back
SplineSet
795.842773438 383.180664062 m 5
 601.46484375 383.180664062 l 5
 601.46484375 296.743164062 l 5
 694.48046875 296.743164062 l 5
 695.672851562 193.017578125 l 5
 495.333007812 194.169921875 l 5
 494.139648438 293.28515625 l 5
 308.110351562 292.1328125 l 5
 309.302734375 194.169921875 l 5
 103 194.169921875 l 5
 101.807617188 294.4375 l 5
 199.592773438 293.28515625 l 5
 199.592773438 384.333007812 l 5
 1.6376953125 383.180664062 l 5
 1.6376953125 489.209960938 l 5
 203.169921875 489.209960938 l 5
 203.169921875 575.647460938 l 5
 101.807617188 575.647460938 l 5
 103 669 l 5
 305.724609375 669 l 5
 305.724609375 575.647460938 l 5
 497.717773438 575.647460938 l 5
 497.717773438 669 l 5
 694.48046875 669 l 5
 695.672851562 575.647460938 l 5
 597.887695312 575.647460938 l 5
 597.887695312 489.209960938 l 5
 795.842773438 489.209960938 l 5
 795.842773438 383.180664062 l 5
EndSplineSet
Fore
SplineSet
4 403 m 0
 4 452 34 481 80 481 c 0
 135 481 191 482 247 482 c 1
 199 526 134 587 134 628 c 0
 134 667 158 696 197 696 c 0
 268 696 391 533 406 533 c 0
 421 533 550 690 617 690 c 0
 653 690 677 658 677 622 c 0
 677 583 621 528 573 484 c 1
 623 484 673 484 722 484 c 0
 770 484 801 477 801 445 c 0
 801 392 777 369 720 369 c 0
 666 369 612 368 558 368 c 1
 608 321 679 254 679 212 c 0
 679 177 653 143 615 143 c 0
 544 143 425 306 408 306 c 0
 395 306 258 144 188 144 c 0
 149 144 123 180 123 216 c 0
 123 257 186 319 236 366 c 1
 188 366 139 365 91 365 c 0
 41 365 4 370 4 403 c 0
EndSplineSet
Validated: 1
EndChar

StartChar: exclam
Encoding: 33 33 85
Width: 349
VWidth: 0
Flags: HW
LayerCount: 3
Back
SplineSet
371.809570312 378.447265625 m 5
 264.162109375 378.447265625 l 5
 264.162109375 185.14453125 l 5
 81.27734375 185.14453125 l 5
 81.27734375 374.974609375 l 5
 -21.740234375 374.974609375 l 5
 -21.740234375 662.03515625 l 5
 84.75 662.03515625 l 5
 84.75 762.737304688 l 5
 264.162109375 762.737304688 l 5
 264.162109375 662.03515625 l 5
 371.809570312 662.03515625 l 5
 371.809570312 378.447265625 l 5
267.634765625 1.1025390625 m 5
 81.27734375 1.1025390625 l 5
 81.27734375 91.3876953125 l 5
 267.634765625 91.3876953125 l 5
 267.634765625 1.1025390625 l 5
EndSplineSet
Fore
SplineSet
6 553 m 3
 6 665 63 763 174 763 c 24
 287 763 342 666 342 553 c 3
 342 421 285 184 171 184 c 3
 74 184 6 420 6 553 c 3
78 48 m 27
 78 81 114 100 169 100 c 3
 222 100 269 87 269 48 c 3
 269 13 230 -4 171 -4 c 3
 111 -4 78 15 78 48 c 27
EndSplineSet
Validated: 1
EndChar

StartChar: quotedbl
Encoding: 34 34 86
Width: 503
Flags: HW
LayerCount: 3
Back
SplineSet
489.415039062 381.482421875 m 5
 390.924804688 381.482421875 l 5
 390.924804688 671.08984375 l 5
 489.415039062 671.08984375 l 5
 489.415039062 381.482421875 l 5
202.15234375 385 m 1
 4 385 l 1
 4 671.08984375 l 1
 202.15234375 671.08984375 l 1
 202.15234375 385 l 1
EndSplineSet
Fore
SplineSet
6 592 m 3
 6 654 54 674 108 674 c 3
 200 674 220 585 220 556 c 3
 220 510 151 364 84 364 c 3
 41 364 17 392 17 414 c 3
 17 446 49 463 49 517 c 3
 49 531 6 557 6 592 c 3
342 592 m 3
 342 654 375 674 413 674 c 3
 479 674 497 608 497 579 c 3
 497 533 442 364 394 364 c 3
 363 364 350 392 350 414 c 3
 350 446 373 463 373 517 c 3
 373 531 342 557 342 592 c 3
EndSplineSet
Validated: 1
EndChar

StartChar: numbersign
Encoding: 35 35 87
Width: 788
Flags: HW
LayerCount: 3
Back
SplineSet
780.680664062 291.291992188 m 5
 687.880859375 291.291992188 l 5
 687.880859375 191.532226562 l 5
 494.16015625 191.532226562 l 5
 494.16015625 291.291992188 l 5
 299.280273438 291.291992188 l 5
 299.280273438 188.051757812 l 5
 112.520507812 191.532226562 l 5
 112.520507812 287.811523438 l 5
 9.2802734375 287.811523438 l 5
 9.2802734375 381.771484375 l 5
 112.520507812 381.771484375 l 5
 112.520507812 572.01171875 l 5
 9.2802734375 570.8515625 l 5
 9.2802734375 663.65234375 l 5
 116 665.971679688 l 5
 116 763.412109375 l 5
 299.280273438 763.412109375 l 5
 299.280273438 665.971679688 l 5
 494.16015625 665.971679688 l 5
 494.16015625 763.412109375 l 5
 687.880859375 763.412109375 l 5
 687.880859375 662.4921875 l 5
 780.680664062 661.33203125 l 5
 780.680664062 572.01171875 l 5
 691.360351562 572.01171875 l 5
 691.360351562 381.771484375 l 5
 780.680664062 381.771484375 l 5
 780.680664062 291.291992188 l 5
496.48046875 378.291992188 m 5
 496.48046875 575.4921875 l 5
 293.48046875 575.4921875 l 5
 293.48046875 378.291992188 l 5
 496.48046875 378.291992188 l 5
EndSplineSet
Fore
SplineSet
335 576 m 27
 314 576 291 564 291 543 c 27
 291 492 291 463 291 412 c 27
 291 392 307 377 327 377 c 27
 380 377 411 377 464 377 c 27
 483 377 498 394 498 413 c 27
 498 464 496 492 496 543 c 27
 496 560 483 576 466 576 c 27
 415 576 386 576 335 576 c 27
4 613 m 27
 4 636 22 669 45 669 c 27
 65 669 76 669 95 669 c 27
 109 669 122 680 122 694 c 27
 122 709 121 718 121 733 c 27
 121 760 157 770 184 770 c 24
 232 770 298 758 298 735 c 3
 298 713 297 709 297 692 c 27
 297 678 312 669 326 669 c 27
 383 669 416 669 473 669 c 27
 484 669 494 678 494 689 c 27
 494 709 494 720 494 740 c 27
 494 765 529 769 554 769 c 24
 607 769 682 762 682 738 c 3
 682 719 682 709 682 690 c 27
 682 675 693 663 708 663 c 27
 724 663 732 662 748 662 c 27
 765 662 782 644 782 627 c 27
 782 603 772 571 748 571 c 27
 732 571 722 571 706 571 c 27
 694 571 686 561 686 549 c 27
 686 492 686 459 686 402 c 27
 686 391 694 385 705 385 c 27
 724 385 734 385 753 385 c 27
 768 385 782 369 782 354 c 27
 782 328 777 291 751 291 c 27
 733 291 722 291 704 291 c 27
 691 291 681 281 681 268 c 27
 681 249 681 238 681 219 c 27
 681 197 654 191 632 191 c 27
 575 191 494 193 494 219 c 3
 494 237 494 247 494 265 c 27
 494 280 481 292 466 292 c 27
 411 292 380 291 325 291 c 27
 310 291 297 280 297 265 c 27
 297 246 296 236 296 217 c 27
 296 192 264 189 239 189 c 27
 188 189 116 191 116 216 c 3
 116 231 116 239 116 254 c 27
 116 270 107 287 91 287 c 27
 70 287 58 288 37 288 c 27
 17 288 4 305 4 325 c 27
 4 349 15 385 39 385 c 27
 60 385 69 385 90 385 c 3
 106 385 117 394 117 410 c 3
 117 463 117 488 117 541 c 27
 117 556 104 571 89 571 c 27
 68 571 58 571 37 571 c 27
 15 571 4 591 4 613 c 27
EndSplineSet
Validated: 1
EndChar

StartChar: bar
Encoding: 124 124 88
Width: 128
Flags: HW
LayerCount: 3
Fore
SplineSet
48 767 m 3
 72 767 115 736 115 712 c 3
 115 524 115 214 115 26 c 27
 115 10 100 -5 84 -5 c 27
 48 -5 12 22 12 58 c 27
 12 246 12 556 12 744 c 3
 12 761 30 767 48 767 c 3
EndSplineSet
Validated: 1
EndChar

StartChar: asciitilde
Encoding: 126 126 89
Width: 618
Flags: HWO
LayerCount: 3
Back
SplineSet
8.201171875 292.454101562 m 1
 115.05078125 293.249023438 l 1
 114.201171875 383.454101562 l 1
 181.219726562 383.44921875 247.896484375 383.104492188 313.825195312 382.009765625 c 1
 313.05078125 477.249023438 l 1
 113 476 l 1
 113.619140625 409.70703125 113.446289062 450.204101562 114.201171875 383.454101562 c 1
 7.3515625 382.659179688 l 1
 8.201171875 292.454101562 l 1
313.825195312 382.009765625 m 1
 313.825195312 292.043945312 l 1
 506.05078125 294.249023438 l 1
 505.56458367 385.624293017 l 1
 504.215820312 385.639648438 l 1
 313.825195312 382.009765625 l 1
505.56458367 385.624293017 m 1
 505.065429688 479.434570312 l 1
 610.215820312 478.639648438 l 1
 610.065429688 384.434570312 l 1
 505.56458367 385.624293017 l 1
EndSplineSet
Fore
SplineSet
3 315 m 3
 3 385 113 489 212 489 c 3
 325 489 315 404 410 404 c 3
 485 404 479 492 571 492 c 3
 590 492 613 474 613 448 c 3
 613 387 510 277 414 277 c 3
 302 277 300 362 213 362 c 3
 133 362 138 275 38 275 c 3
 21 275 3 298 3 315 c 3
EndSplineSet
Validated: 1
EndChar

StartChar: grave
Encoding: 96 96 90
Width: 284
Flags: HW
LayerCount: 3
Back
SplineSet
197.067382812 573.364257812 m 5
 198.200195312 486.162109375 l 5
 292.197265625 486.162109375 l 5
 291.064453125 574.497070312 l 5
 197.067382812 573.364257812 l 5
 197.067382812 667.361328125 l 5
 103.069335938 668.494140625 l 5
 101.9375 763.624023438 l 5
 17 763.624023438 l 5
 17 667.634765625 l 5
 103.069335938 668.494140625 l 5
 106 574.634765625 l 5
 197.067382812 573.364257812 l 5
EndSplineSet
Fore
SplineSet
74 775 m 3
 103 775 275 596 275 537 c 3
 275 489 272 472 220 472 c 3
 178 472 8 672 8 699 c 3
 8 751 12 775 74 775 c 3
EndSplineSet
Validated: 1
EndChar

StartChar: at
Encoding: 64 64 91
Width: 636
Flags: HW
LayerCount: 3
Back
SplineSet
105 763.421875 m 5
 485.649414062 763.421875 l 5
 485.649414062 666.822265625 l 5
 582.25 666.822265625 l 5
 581.099609375 381.622070312 l 5
 286.69921875 381.622070312 l 5
 286.69921875 572.522460938 l 5
 386.75 572.522460938 l 5
 386.75 666.822265625 l 5
 198.149414062 666.822265625 l 5
 198.149414062 291.921875 l 5
 585.69921875 291.921875 l 5
 585.69921875 194.171875 l 5
 108.44921875 193.022460938 l 5
 108.44921875 291.921875 l 5
 4.94921875 291.921875 l 5
 4.94921875 663.372070312 l 5
 106.149414062 663.372070312 l 5
 105 763.421875 l 5
EndSplineSet
Fore
SplineSet
348 487 m 27
 348 458 373 437 402 437 c 27
 430 437 463 449 463 477 c 27
 463 508 429 524 398 524 c 27
 374 524 348 511 348 487 c 27
4 476 m 3
 4 635 142 769 301 769 c 3
 480 769 573 674 573 512 c 3
 573 484 591 435 591 405 c 3
 591 377 583 366 555 366 c 3
 539 366 517 373 502 373 c 3
 478 373 442 355 413 355 c 3
 314 355 249 385 249 486 c 3
 249 549 286 604 337 604 c 3
 404 604 409 596 446 582 c 1
 432 632 419 678 315 678 c 3
 221 678 156 595 156 464 c 3
 156 369 234 267 337 267 c 3
 468 267 529 314 573 314 c 3
 618 314 629 293 629 264 c 3
 629 236 522 167 340 167 c 3
 147 167 4 299 4 476 c 3
EndSplineSet
Validated: 1
EndChar

StartChar: percent
Encoding: 37 37 92
Width: 654
VWidth: 0
Flags: HW
LayerCount: 3
Back
SplineSet
231.259765625 577.645507812 m 5
 37.599609375 577.645507812 l 5
 37.599609375 765.505859375 l 5
 231.259765625 765.505859375 l 5
 231.259765625 577.645507812 l 5
605.822265625 664.618164062 m 5
 522.329101562 664.618164062 l 5
 522.329101562 577.645507812 l 5
 415.641601562 577.645507812 l 5
 415.641601562 483.71484375 l 5
 324.030273438 484.875 l 5
 326.349609375 383.986328125 l 5
 232.419921875 383.986328125 l 5
 232.419921875 288.895507812 l 5
 131.53125 290.0546875 l 5
 131.53125 186.84765625 l 5
 32.9619140625 186.84765625 l 5
 34.12109375 382.826171875 l 5
 128.051757812 383.986328125 l 5
 128.051757812 484.875 l 5
 227.780273438 484.875 l 5
 227.780273438 577.645507812 l 5
 321.711914062 576.485351562 l 5
 321.711914062 668.096679688 l 5
 415.641601562 668.096679688 l 5
 415.641601562 768.985351562 l 5
 612.78125 768.985351562 l 5
 612.78125 664.618164062 l 5
 605.822265625 664.618164062 l 5
609.301757812 190.326171875 m 5
 415.641601562 190.326171875 l 5
 415.641601562 380.506835938 l 5
 609.301757812 380.506835938 l 5
 609.301757812 190.326171875 l 5
EndSplineSet
Fore
SplineSet
545 780 m 3
 607 780 626 762 626 708 c 3
 626 681 137 170 106 170 c 3
 33 170 29 190 29 238 c 3
 29 297 516 780 545 780 c 3
82 672 m 27
 82 640 104 616 135 616 c 27
 164 616 188 640 188 670 c 27
 188 700 163 723 134 723 c 27
 105 723 82 702 82 672 c 27
4 676 m 27
 4 751 63 805 137 805 c 27
 211 805 274 747 274 672 c 27
 274 597 214 535 140 535 c 27
 60 535 4 596 4 676 c 27
457 286 m 27
 457 254 479 230 510 230 c 27
 539 230 563 254 563 284 c 27
 563 314 538 337 509 337 c 27
 480 337 457 316 457 286 c 27
379 290 m 27
 379 365 438 419 512 419 c 27
 586 419 649 361 649 286 c 27
 649 211 589 149 515 149 c 27
 435 149 379 210 379 290 c 27
EndSplineSet
Validated: 1
EndChar

StartChar: ampersand
Encoding: 38 38 93
Width: 684
Flags: HW
LayerCount: 3
Back
SplineSet
675.834960938 288.66015625 m 1
 578.60546875 288.66015625 l 1
 579.762695312 192.587890625 l 1
 672.36328125 192.587890625 l 1
 672.36328125 95.357421875 l 1
 479.060546875 95.357421875 l 1
 479.060546875 189.115234375 l 1
 385.302734375 189.115234375 l 1
 385.302734375 288.66015625 l 1
 295.017578125 288.66015625 l 1
 295.017578125 378.9453125 l 1
 195.47265625 378.9453125 l 1
 195.47265625 189.115234375 l 1
 385.302734375 189.115234375 l 1
 385.302734375 95.357421875 l 1
 101.71484375 95.357421875 l 1
 100.557617188 189.115234375 l 1
 4.4853515625 189.115234375 l 1
 4.4853515625 382.41796875 l 1
 101.71484375 382.41796875 l 1
 100.557617188 485.435546875 l 1
 195.47265625 485.435546875 l 1
 195.47265625 572.248046875 l 1
 98.2431640625 572.248046875 l 1
 98.2431640625 666.004882812 l 1
 192 666.004882812 l 1
 192 763.235351562 l 1
 481.375 764.392578125 l 1
 482.533203125 669.477539062 l 1
 582.078125 668.3203125 l 1
 580.919921875 572.248046875 l 1
 479.060546875 572.248046875 l 1
 479.060546875 483.120117188 l 1
 385.302734375 483.120117188 l 1
 386.459960938 382.41796875 l 1
 675.834960938 382.41796875 l 1
 675.834960938 288.66015625 l 1
385.302734375 572.248046875 m 1
 385.302734375 662.532226562 l 1
 295.017578125 662.532226562 l 1
 295.017578125 572.248046875 l 1
 385.302734375 572.248046875 l 1
EndSplineSet
Fore
SplineSet
344 680 m 27
 308 680 264 660 264 624 c 3
 264 585 280 577 309 543 c 1
 340 562 424 584 424 624 c 3
 424 658 378 680 344 680 c 27
259 405 m 1
 229 389 172 364 172 274 c 3
 172 229 214 187 259 187 c 3
 313 187 378 225 400 250 c 1
 351 300 305 350 259 405 c 1
121 618 m 3
 121 685 221 770 341 770 c 3
 484 770 557 712 557 618 c 3
 557 542 391 474 371 458 c 1
 401 417 442 372 490 326 c 1
 517 346 547 385 635 385 c 3
 667 385 679 366 679 342 c 3
 679 291 601 305 557 246 c 1
 575 205 670 178 670 148 c 3
 670 114 649 95 623 95 c 3
 543 95 513 134 463 180 c 1
 438 162 378 92 240 92 c 3
 109 92 4 151 4 277 c 3
 4 413 164 468 188 494 c 1
 155 543 121 570 121 618 c 3
EndSplineSet
Validated: 1
EndChar

StartChar: dollar
Encoding: 36 36 94
Width: 666
Flags: HW
LayerCount: 3
Back
SplineSet
206 763.220703125 m 5
 398.049804688 763.220703125 l 5
 398.049804688 658.5703125 l 5
 593.549804688 658.5703125 l 5
 593.549804688 572.3203125 l 5
 206 573.470703125 l 5
 206 480.3203125 l 5
 491.200195312 480.3203125 l 5
 491.200195312 374.520507812 l 5
 590.099609375 374.520507812 l 5
 590.099609375 284.8203125 l 5
 491.200195312 284.8203125 l 5
 491.200195312 185.920898438 l 5
 399.200195312 185.920898438 l 5
 399.200195312 93.9208984375 l 5
 208.299804688 93.9208984375 l 5
 208.299804688 183.62109375 l 5
 15.099609375 183.62109375 l 5
 15.099609375 284.8203125 l 5
 396.899414062 284.8203125 l 5
 396.899414062 379.12109375 l 5
 116.299804688 379.12109375 l 5
 116.299804688 478.020507812 l 5
 15.099609375 478.020507812 l 5
 15.099609375 570.020507812 l 5
 114 570.020507812 l 5
 114 664.3203125 l 5
 206 664.3203125 l 5
 206 763.220703125 l 5
EndSplineSet
Fore
SplineSet
6 273 m 0
 6 304 50 319 81 319 c 0
 145 319 231 276 314 276 c 0
 365 276 431 286 431 331 c 0
 431 410 37 337 37 532 c 0
 37 625 115 664 209 678 c 1
 208 700 208 717 208 729 c 0
 208 754 235 770 260 770 c 0
 314 770 396 755 396 712 c 2
 396 677 l 1
 484 662 569 626 569 567 c 0
 569 537 544 526 506 526 c 0
 450 526 457 583 294 583 c 0
 257 583 190 576 190 540 c 0
 190 433 599 527 599 330 c 0
 599 253 496 192 396 173 c 1
 396 121 l 2
 396 98 367 86 344 86 c 0
 289 86 209 99 209 133 c 2
 209 175 l 1
 85 194 6 238 6 273 c 0
EndSplineSet
Validated: 1
EndChar
